<svg width="952" height="1041" viewBox="0 0 952 1041" fill="none" xmlns="http://www.w3.org/2000/svg">
<g filter="url(#filter0_d_73_28)">
<path d="M5.20312 54.0474C5.20312 26.9592 27.1624 5 54.2505 5H946.797V1036H5.20312V54.0474Z" fill="#588FFF"/>
</g>
<g filter="url(#filter1_d_73_28)">
<path d="M232.071 466.202H200.239V463.063L204.85 459.434V432.507L199.356 431.133L201.122 427.602H219.22V430.692L214.561 434.322V461.935H225.106L232.807 450.9L235.897 452.175V467.085L232.071 466.202ZM271.299 466.153H259.577V461.886L254.035 466.251C253.381 466.513 252.563 466.644 251.582 466.644C248.345 466.644 246.007 465.859 244.568 464.29C243.13 462.687 242.41 460.774 242.41 458.551C242.41 457.276 242.803 456.017 243.587 454.774C244.372 453.532 245.484 452.387 246.923 451.341H259.577V451.145C259.577 449.445 259.103 448.186 258.155 447.368C257.239 446.518 256.013 446.093 254.476 446.093C252.22 446.093 249.064 446.878 245.01 448.447L243.538 445.406L250.307 439.962C252.04 439.406 254.084 439.128 256.438 439.128C260.296 439.128 263.288 439.995 265.414 441.728C267.572 443.461 268.651 445.978 268.651 449.281V460.856L273.065 462.573L271.299 466.153ZM254.378 459.287C255.915 459.287 257.648 458.665 259.577 457.423V454.921H251.876C251.517 455.51 251.337 456.148 251.337 456.834C251.337 457.586 251.599 458.191 252.122 458.649C252.678 459.074 253.43 459.287 254.378 459.287ZM295.663 466.251C294.42 466.513 292.982 466.644 291.347 466.644C288.044 466.644 285.641 465.941 284.137 464.535C282.633 463.096 281.88 460.889 281.88 457.913V444.72H276.583V441.875L287.521 430.251H290.954V441.09H299.783V444.72H290.954V457.325C290.954 459.417 292.229 460.464 294.78 460.464C295.467 460.464 296.121 460.382 296.742 460.219C297.396 460.055 298.197 459.744 299.145 459.287L300.617 462.328L295.663 466.251ZM322.213 439.128C325.745 439.128 328.475 440.469 330.404 443.15C332.366 445.799 333.315 449.543 333.249 454.382H315.739C316.099 456.115 316.769 457.505 317.75 458.551C318.731 459.565 320.006 460.071 321.576 460.071C323.897 460.071 327.282 459.074 331.729 457.08L333.2 460.12L326.137 465.81C324.077 466.366 321.609 466.644 318.731 466.644C316.279 466.644 314.072 466.088 312.11 464.976C310.148 463.832 308.611 462.279 307.499 460.317C306.42 458.355 305.881 456.164 305.881 453.744C305.881 451.128 306.731 448.709 308.431 446.485C310.131 444.229 312.257 442.447 314.807 441.139C317.358 439.799 319.827 439.128 322.213 439.128ZM319.565 445.259C318.224 445.259 317.211 445.717 316.524 446.632C315.87 447.515 315.51 448.889 315.445 450.752H324.175C323.979 448.889 323.538 447.515 322.851 446.632C322.164 445.717 321.069 445.259 319.565 445.259ZM358.974 422.844C360.216 422.844 361.622 423.024 363.192 423.384C364.761 423.711 365.889 424.071 366.576 424.463V433.635H363.143C362.325 432.131 361.344 430.954 360.2 430.103C359.056 429.221 357.895 428.779 356.718 428.779C355.639 428.779 354.788 429.237 354.167 430.153C353.546 431.068 353.235 432.392 353.235 434.125V441.09H361.279V444.72H353.235V460.66L360.887 462.573L359.121 466.153H339.796V463.014L344.161 459.287V444.72H339.11V441.09H344.161V437.461C344.161 434.877 344.93 432.458 346.467 430.202C348.036 427.945 349.982 426.163 352.303 424.855C354.625 423.515 356.848 422.844 358.974 422.844ZM381.984 439.128C384.469 439.128 386.693 439.7 388.655 440.845C390.617 441.957 392.137 443.51 393.216 445.504C394.328 447.466 394.884 449.641 394.884 452.028C394.884 454.611 394.034 457.031 392.333 459.287C390.633 461.543 388.491 463.341 385.908 464.682C383.358 465.99 380.889 466.644 378.502 466.644C376.05 466.644 373.842 466.088 371.88 464.976C369.919 463.832 368.382 462.279 367.27 460.317C366.191 458.355 365.651 456.164 365.651 453.744C365.651 451.128 366.502 448.709 368.202 446.485C369.902 444.229 372.028 442.447 374.578 441.139C377.129 439.799 379.597 439.128 381.984 439.128ZM379.14 445.259C377.962 445.259 377.047 445.782 376.393 446.829C375.772 447.842 375.461 449.363 375.461 451.39C375.461 454.039 375.968 456.229 376.981 457.962C378.028 459.663 379.483 460.513 381.347 460.513C382.556 460.513 383.472 459.99 384.093 458.943C384.747 457.897 385.074 456.36 385.074 454.333C385.074 451.684 384.551 449.51 383.505 447.81C382.491 446.109 381.036 445.259 379.14 445.259ZM418.922 446.682C417.843 446.682 416.813 447.074 415.832 447.859V460.611L423.483 462.524L421.718 466.104H402.393V462.965L406.758 459.238V448.938L402.393 446.142V443.003L413.183 438.687L415.047 443.984L419.363 439.521C420.05 439.259 420.818 439.128 421.669 439.128C423.598 439.128 425.216 439.553 426.524 440.403C427.865 441.221 428.797 442.365 429.32 443.837L424.219 450.262H420.737C420.704 448.954 420.54 448.038 420.246 447.515C419.985 446.959 419.543 446.682 418.922 446.682ZM481.604 466.006H469.93V449.771C469.93 448.594 469.734 447.761 469.342 447.27C468.982 446.78 468.328 446.534 467.38 446.534C465.974 446.534 464.584 446.976 463.211 447.859V461.15L467.233 462.475L465.418 466.055H454.137V449.821C454.137 448.643 453.941 447.81 453.549 447.319C453.189 446.829 452.535 446.583 451.587 446.583C450.181 446.583 448.791 447.025 447.418 447.908V461.2L451.44 462.524L449.625 466.104H433.979V462.965L438.344 459.238V448.938L433.979 446.142V443.003L444.769 438.687L446.731 444.18L452.421 439.521C453.205 439.259 454.104 439.128 455.118 439.128C457.047 439.128 458.666 439.553 459.974 440.403C461.314 441.254 462.246 442.431 462.77 443.935L468.214 439.521C468.999 439.259 469.898 439.128 470.911 439.128C473.396 439.128 475.358 439.815 476.797 441.188C478.269 442.529 479.004 444.36 479.004 446.682V461.15L483.418 462.426L481.604 466.006Z" fill="white"/>
</g>
<path d="M218.828 527.604L216.062 530.135L215.591 530.047C215.375 529.203 215.042 528.418 214.59 527.692C214.159 526.947 213.58 526.349 212.854 525.897C212.128 525.446 211.216 525.22 210.117 525.22C208.862 525.22 207.812 525.515 206.968 526.103C206.125 526.672 205.458 527.418 204.967 528.34C204.477 529.262 204.124 530.243 203.908 531.283C203.692 532.323 203.584 533.303 203.584 534.226C203.584 535.265 203.722 536.335 203.996 537.433C204.29 538.512 204.742 539.523 205.35 540.464C205.958 541.387 206.753 542.132 207.734 542.701C208.715 543.27 209.892 543.554 211.265 543.554C212.462 543.554 213.619 543.368 214.738 542.995C215.875 542.623 216.954 542.191 217.975 541.7L218.593 542.436C217.357 543.299 216.013 544.006 214.561 544.555C213.129 545.085 211.628 545.35 210.058 545.35C208.038 545.35 206.331 545.065 204.938 544.496C203.565 543.927 202.456 543.152 201.612 542.171C200.788 541.19 200.19 540.092 199.817 538.875C199.445 537.639 199.258 536.374 199.258 535.079C199.258 533.627 199.484 532.195 199.935 530.782C200.386 529.37 201.191 528.134 202.348 527.074C203.486 526.035 204.791 525.25 206.262 524.72C207.753 524.171 209.303 523.896 210.912 523.896C212.776 523.896 214.345 524.181 215.62 524.75C216.896 525.299 217.965 526.25 218.828 527.604ZM223.851 543.731C223.027 542.985 222.468 542.103 222.174 541.082C221.879 540.043 221.732 539.003 221.732 537.963C221.732 536.531 222.066 535.256 222.733 534.137C223.419 533.019 224.351 532.136 225.528 531.489C226.705 530.841 228.059 530.518 229.589 530.518C230.531 530.518 231.463 530.635 232.385 530.871C233.307 531.087 234.112 531.508 234.798 532.136C235.485 532.744 235.985 533.451 236.299 534.255C236.613 535.059 236.77 535.893 236.77 536.756C236.77 538.777 236.407 540.406 235.681 541.642C234.955 542.858 233.994 543.751 232.797 544.32C231.6 544.869 230.276 545.144 228.824 545.144C227.922 545.144 227.029 545.055 226.146 544.879C225.264 544.702 224.498 544.32 223.851 543.731ZM229.413 531.695C228.648 531.695 228.01 531.901 227.5 532.313C226.99 532.705 226.588 533.225 226.293 533.872C226.019 534.5 225.823 535.177 225.705 535.903C225.587 536.609 225.528 537.286 225.528 537.934C225.528 538.424 225.577 539.013 225.675 539.699C225.774 540.366 225.95 541.024 226.205 541.671C226.46 542.318 226.813 542.858 227.265 543.29C227.735 543.721 228.334 543.937 229.06 543.937C230.001 543.937 230.737 543.731 231.267 543.319C231.797 542.907 232.179 542.358 232.415 541.671C232.67 540.984 232.827 540.229 232.885 539.405C232.944 538.581 232.974 537.757 232.974 536.933C232.974 536.089 232.866 535.275 232.65 534.49C232.454 533.686 232.091 533.019 231.561 532.489C231.051 531.96 230.335 531.695 229.413 531.695ZM245.781 533.696C245.781 534.559 245.781 535.53 245.781 536.609C245.8 537.688 245.82 538.748 245.84 539.788C245.879 540.827 245.908 541.73 245.928 542.495C245.967 543.26 246.016 543.76 246.075 543.996L242.838 544.938L242.485 544.732C242.504 544.163 242.524 543.505 242.544 542.76C242.563 541.995 242.583 541.23 242.603 540.464C242.622 539.699 242.632 538.993 242.632 538.346C242.652 537.679 242.661 537.139 242.661 536.727C242.681 536.315 242.691 536.109 242.691 536.109C242.691 535.481 242.681 534.883 242.661 534.314C242.642 533.745 242.554 533.284 242.397 532.931C242.24 532.558 241.965 532.372 241.573 532.372C241.376 532.372 241.141 532.44 240.866 532.578C240.592 532.695 240.327 532.833 240.072 532.99C239.836 533.147 239.65 533.264 239.513 533.343L238.983 532.636C239.434 532.264 239.925 531.891 240.454 531.518C240.984 531.145 241.524 530.832 242.073 530.576C242.642 530.321 243.201 530.194 243.75 530.194C244.515 530.194 245.016 530.41 245.251 530.841C245.506 531.253 245.653 531.714 245.693 532.224L246.046 532.342C246.909 531.812 247.851 531.342 248.871 530.93C249.911 530.498 250.921 530.282 251.902 530.282C252.726 530.282 253.344 530.439 253.756 530.753C254.168 531.067 254.452 531.518 254.609 532.107C254.766 532.676 254.845 533.362 254.845 534.167C254.864 534.951 254.874 535.825 254.874 536.786C254.874 537.237 254.855 537.737 254.815 538.287C254.796 538.836 254.786 539.346 254.786 539.817C254.786 540.661 254.825 541.2 254.904 541.436C255.002 541.651 255.119 541.818 255.257 541.936C255.453 542.132 255.728 542.23 256.081 542.23C256.454 542.23 256.797 542.152 257.111 541.995C257.444 541.838 257.758 541.661 258.053 541.465H258.406L258.729 541.965C258.298 542.397 257.817 542.858 257.287 543.348C256.777 543.839 256.248 544.261 255.698 544.614C255.149 544.947 254.6 545.114 254.05 545.114C253.422 545.114 252.893 544.918 252.461 544.526C252.167 544.251 251.971 543.858 251.873 543.348C251.794 542.838 251.755 542.142 251.755 541.259C251.774 540.357 251.784 539.189 251.784 537.757C251.784 537.188 251.774 536.57 251.755 535.903C251.735 535.216 251.667 534.589 251.549 534.02C251.451 533.451 251.264 533.048 250.99 532.813C250.774 532.597 250.519 532.47 250.225 532.43C249.93 532.372 249.636 532.342 249.342 532.342C248.91 532.342 248.341 532.499 247.635 532.813C246.948 533.107 246.33 533.402 245.781 533.696ZM266.622 533.696C266.622 534.559 266.622 535.53 266.622 536.609C266.642 537.688 266.661 538.748 266.681 539.788C266.72 540.827 266.75 541.73 266.769 542.495C266.809 543.26 266.858 543.76 266.916 543.996L263.679 544.938L263.326 544.732C263.346 544.163 263.365 543.505 263.385 542.76C263.405 541.995 263.424 541.23 263.444 540.464C263.464 539.699 263.473 538.993 263.473 538.346C263.493 537.679 263.503 537.139 263.503 536.727C263.522 536.315 263.532 536.109 263.532 536.109C263.532 535.481 263.522 534.883 263.503 534.314C263.483 533.745 263.395 533.284 263.238 532.931C263.081 532.558 262.806 532.372 262.414 532.372C262.218 532.372 261.982 532.44 261.708 532.578C261.433 532.695 261.168 532.833 260.913 532.99C260.678 533.147 260.491 533.264 260.354 533.343L259.824 532.636C260.275 532.264 260.766 531.891 261.296 531.518C261.825 531.145 262.365 530.832 262.914 530.576C263.483 530.321 264.042 530.194 264.592 530.194C265.357 530.194 265.857 530.41 266.092 530.841C266.348 531.253 266.495 531.714 266.534 532.224L266.887 532.342C267.75 531.812 268.692 531.342 269.712 530.93C270.752 530.498 271.762 530.282 272.743 530.282C273.567 530.282 274.185 530.439 274.597 530.753C275.009 531.067 275.294 531.518 275.451 532.107C275.608 532.676 275.686 533.362 275.686 534.167C275.706 534.951 275.716 535.825 275.716 536.786C275.716 537.237 275.696 537.737 275.657 538.287C275.637 538.836 275.627 539.346 275.627 539.817C275.627 540.661 275.667 541.2 275.745 541.436C275.843 541.651 275.961 541.818 276.098 541.936C276.294 542.132 276.569 542.23 276.922 542.23C277.295 542.23 277.638 542.152 277.952 541.995C278.286 541.838 278.6 541.661 278.894 541.465H279.247L279.571 541.965C279.139 542.397 278.658 542.858 278.129 543.348C277.619 543.839 277.089 544.261 276.54 544.614C275.99 544.947 275.441 545.114 274.892 545.114C274.264 545.114 273.734 544.918 273.302 544.526C273.008 544.251 272.812 543.858 272.714 543.348C272.635 542.838 272.596 542.142 272.596 541.259C272.616 540.357 272.626 539.189 272.626 537.757C272.626 537.188 272.616 536.57 272.596 535.903C272.577 535.216 272.508 534.589 272.39 534.02C272.292 533.451 272.106 533.048 271.831 532.813C271.615 532.597 271.36 532.47 271.066 532.43C270.772 532.372 270.477 532.342 270.183 532.342C269.751 532.342 269.182 532.499 268.476 532.813C267.79 533.107 267.172 533.402 266.622 533.696ZM294.085 541.73L294.526 541.848L294.85 542.407C294.203 542.878 293.506 543.339 292.761 543.79C292.035 544.221 291.279 544.575 290.495 544.849C289.71 545.144 288.915 545.291 288.111 545.291C287.267 545.291 286.433 545.173 285.609 544.938C284.805 544.722 284.109 544.339 283.52 543.79C282.814 543.142 282.333 542.377 282.078 541.494C281.843 540.612 281.725 539.719 281.725 538.816C281.725 537.737 281.892 536.688 282.225 535.668C282.559 534.647 283.069 533.735 283.755 532.931C284.442 532.107 285.296 531.459 286.316 530.988C287.356 530.498 288.572 530.253 289.965 530.253C290.887 530.253 291.78 530.39 292.643 530.665C293.506 530.92 294.212 531.361 294.762 531.989C295.311 532.617 295.586 533.47 295.586 534.549C295.586 534.863 295.507 535.099 295.35 535.256C295.213 535.413 295.007 535.54 294.732 535.638C294.732 535.638 294.507 535.707 294.055 535.844C293.604 535.981 293.016 536.168 292.29 536.403C291.564 536.619 290.779 536.855 289.935 537.11C289.092 537.365 288.258 537.62 287.434 537.875C286.61 538.13 285.884 538.355 285.256 538.552C285.256 539.336 285.423 540.092 285.757 540.818C286.09 541.543 286.581 542.142 287.228 542.613C287.875 543.064 288.67 543.29 289.612 543.29C290.416 543.29 291.191 543.133 291.937 542.819C292.702 542.505 293.418 542.142 294.085 541.73ZM285.462 537.257C285.502 537.257 285.531 537.257 285.551 537.257C285.59 537.237 285.619 537.227 285.639 537.227C286.993 536.796 288.091 536.462 288.935 536.227C289.779 535.972 290.416 535.775 290.848 535.638C291.279 535.481 291.574 535.344 291.731 535.226C291.888 535.089 291.966 534.912 291.966 534.696C291.966 534.186 291.878 533.686 291.701 533.196C291.525 532.685 291.24 532.264 290.848 531.93C290.455 531.597 289.935 531.43 289.288 531.43C288.503 531.43 287.846 531.626 287.316 532.018C286.787 532.391 286.375 532.872 286.08 533.46C285.786 534.049 285.57 534.677 285.433 535.344C285.315 535.991 285.256 536.58 285.256 537.11C285.256 537.208 285.325 537.257 285.462 537.257ZM310.734 533.666L308.027 535.285L307.527 535.079C307.527 534.471 307.438 533.892 307.262 533.343C307.105 532.774 306.84 532.313 306.467 531.96C306.095 531.587 305.584 531.4 304.937 531.4C304.29 531.4 303.75 531.626 303.319 532.077C302.907 532.509 302.573 533.058 302.318 533.725C302.083 534.373 301.916 535.04 301.818 535.726C301.72 536.413 301.671 537.011 301.671 537.522C301.671 538.071 301.729 538.669 301.847 539.317C301.984 539.945 302.2 540.553 302.495 541.141C302.808 541.71 303.22 542.181 303.731 542.554C304.26 542.907 304.908 543.084 305.673 543.084C306.516 543.084 307.35 542.887 308.174 542.495C308.998 542.103 309.783 541.622 310.528 541.053L310.882 541.141L311.176 541.553C310.175 542.554 309.037 543.397 307.762 544.084C306.487 544.771 305.094 545.114 303.583 545.114C302.289 545.114 301.249 544.82 300.464 544.231C299.679 543.643 299.1 542.887 298.728 541.965C298.375 541.043 298.198 540.101 298.198 539.14C298.198 538.081 298.335 537.021 298.61 535.962C298.904 534.902 299.355 533.941 299.964 533.078C300.591 532.215 301.406 531.528 302.406 531.018C303.426 530.488 304.672 530.223 306.144 530.223C306.889 530.223 307.595 530.331 308.262 530.547C308.949 530.743 309.518 531.096 309.969 531.606C310.421 532.097 310.676 532.784 310.734 533.666ZM315.755 527.516L318.904 526.456L319.346 526.662C319.346 526.662 319.326 526.829 319.287 527.163C319.267 527.496 319.238 527.918 319.198 528.428C319.179 528.919 319.149 529.439 319.11 529.988C319.071 530.537 319.032 531.038 318.992 531.489L319.198 531.724H322.877L323.083 532.018L322.789 532.784L322.435 533.048H319.198L318.963 533.284V537.963C318.963 538.787 318.983 539.562 319.022 540.288C319.081 540.994 319.218 541.573 319.434 542.024C319.669 542.456 320.052 542.672 320.582 542.672C320.974 542.672 321.386 542.554 321.817 542.318C322.269 542.063 322.651 541.789 322.965 541.494H323.259L323.613 541.936C323.24 542.426 322.798 542.917 322.288 543.407C321.798 543.898 321.249 544.31 320.64 544.643C320.052 544.977 319.424 545.144 318.757 545.144C318.051 545.144 317.501 544.996 317.109 544.702C316.717 544.408 316.432 544.015 316.256 543.525C316.079 543.015 315.971 542.456 315.932 541.848C315.893 541.239 315.873 540.631 315.873 540.023V533.313L315.608 533.048H312.371L312.194 532.813L312.489 531.96L312.812 531.754H315.638L315.844 531.489C315.844 530.979 315.834 530.42 315.814 529.811C315.794 529.184 315.775 528.644 315.755 528.193C315.755 527.742 315.755 527.516 315.755 527.516ZM328.089 526.545C328.089 526.015 328.276 525.564 328.648 525.191C329.041 524.799 329.502 524.602 330.031 524.602C330.561 524.602 331.012 524.799 331.385 525.191C331.778 525.564 331.974 526.015 331.974 526.545C331.974 527.074 331.778 527.536 331.385 527.928C331.012 528.301 330.561 528.487 330.031 528.487C329.502 528.487 329.041 528.301 328.648 527.928C328.276 527.536 328.089 527.074 328.089 526.545ZM334.887 541.318L335.387 541.789V542.112C335.015 542.564 334.583 543.034 334.093 543.525C333.602 543.996 333.072 544.398 332.503 544.732C331.954 545.045 331.385 545.202 330.797 545.202C330.443 545.202 330.11 545.124 329.796 544.967C329.482 544.83 329.227 544.633 329.031 544.378C328.776 544.025 328.609 543.594 328.531 543.084C328.452 542.573 328.423 541.867 328.442 540.965C328.462 540.043 328.472 538.836 328.472 537.345V533.902C328.452 533.588 328.374 533.274 328.236 532.96C328.119 532.627 327.854 532.46 327.442 532.46C327.128 532.46 326.794 532.558 326.441 532.754C326.108 532.931 325.764 533.147 325.411 533.402L324.94 532.754C325.392 532.381 325.882 532.009 326.412 531.636C326.961 531.263 327.52 530.949 328.089 530.694C328.658 530.439 329.227 530.312 329.796 530.312C330.09 530.312 330.375 530.37 330.649 530.488C330.924 530.586 331.13 530.753 331.267 530.988C331.385 531.185 331.473 531.43 331.532 531.724C331.591 532.018 331.621 532.597 331.621 533.46C331.621 534.049 331.601 534.647 331.562 535.256C331.542 535.844 331.532 536.433 331.532 537.021C331.532 538.218 331.523 539.238 331.503 540.082C331.503 540.925 331.591 541.573 331.768 542.024C331.944 542.475 332.288 542.701 332.798 542.701C333.151 542.701 333.514 542.544 333.887 542.23C334.259 541.916 334.593 541.612 334.887 541.318ZM343.326 533.696C343.326 534.559 343.326 535.53 343.326 536.609C343.345 537.688 343.365 538.748 343.385 539.788C343.424 540.827 343.453 541.73 343.473 542.495C343.512 543.26 343.561 543.76 343.62 543.996L340.383 544.938L340.03 544.732C340.049 544.163 340.069 543.505 340.089 542.76C340.108 541.995 340.128 541.23 340.148 540.464C340.167 539.699 340.177 538.993 340.177 538.346C340.197 537.679 340.206 537.139 340.206 536.727C340.226 536.315 340.236 536.109 340.236 536.109C340.236 535.481 340.226 534.883 340.206 534.314C340.187 533.745 340.098 533.284 339.942 532.931C339.785 532.558 339.51 532.372 339.118 532.372C338.921 532.372 338.686 532.44 338.411 532.578C338.137 532.695 337.872 532.833 337.617 532.99C337.381 533.147 337.195 533.264 337.058 533.343L336.528 532.636C336.979 532.264 337.47 531.891 337.999 531.518C338.529 531.145 339.068 530.832 339.618 530.576C340.187 530.321 340.746 530.194 341.295 530.194C342.06 530.194 342.561 530.41 342.796 530.841C343.051 531.253 343.198 531.714 343.237 532.224L343.591 532.342C344.454 531.812 345.396 531.342 346.416 530.93C347.456 530.498 348.466 530.282 349.447 530.282C350.271 530.282 350.889 530.439 351.301 530.753C351.713 531.067 351.997 531.518 352.154 532.107C352.311 532.676 352.39 533.362 352.39 534.167C352.409 534.951 352.419 535.825 352.419 536.786C352.419 537.237 352.4 537.737 352.36 538.287C352.341 538.836 352.331 539.346 352.331 539.817C352.331 540.661 352.37 541.2 352.449 541.436C352.547 541.651 352.664 541.818 352.802 541.936C352.998 542.132 353.273 542.23 353.626 542.23C353.998 542.23 354.342 542.152 354.656 541.995C354.989 541.838 355.303 541.661 355.597 541.465H355.951L356.274 541.965C355.843 542.397 355.362 542.858 354.832 543.348C354.322 543.839 353.792 544.261 353.243 544.614C352.694 544.947 352.145 545.114 351.595 545.114C350.967 545.114 350.438 544.918 350.006 544.526C349.712 544.251 349.516 543.858 349.417 543.348C349.339 542.838 349.3 542.142 349.3 541.259C349.319 540.357 349.329 539.189 349.329 537.757C349.329 537.188 349.319 536.57 349.3 535.903C349.28 535.216 349.211 534.589 349.094 534.02C348.996 533.451 348.809 533.048 348.535 532.813C348.319 532.597 348.064 532.47 347.769 532.43C347.475 532.372 347.181 532.342 346.887 532.342C346.455 532.342 345.886 532.499 345.18 532.813C344.493 533.107 343.875 533.402 343.326 533.696ZM371.848 541.082C371.848 542.201 371.818 543.142 371.76 543.908C371.701 544.653 371.583 545.399 371.406 546.144C371.112 547.38 370.543 548.43 369.7 549.293C368.856 550.156 367.855 550.813 366.698 551.265C365.56 551.716 364.383 551.942 363.167 551.942C362.323 551.942 361.46 551.745 360.577 551.353C359.694 550.961 358.988 550.46 358.458 549.852L360.224 547.527H360.842C361.293 548.312 361.823 548.999 362.431 549.587C363.059 550.176 363.745 550.47 364.491 550.47C365.06 550.47 365.599 550.343 366.109 550.088C366.619 549.852 367.022 549.538 367.316 549.146C367.748 548.577 368.061 548.037 368.258 547.527C368.454 547.037 368.581 546.458 368.64 545.791C368.699 545.124 368.738 544.261 368.758 543.201C367.836 543.809 366.894 544.329 365.933 544.761C364.971 545.173 363.941 545.379 362.843 545.379C361.862 545.379 361.087 545.144 360.518 544.673C359.949 544.202 359.527 543.613 359.253 542.907C358.978 542.181 358.801 541.426 358.723 540.641C358.644 539.856 358.605 539.15 358.605 538.522C358.605 536.835 358.89 535.373 359.459 534.137C360.047 532.901 360.881 531.95 361.96 531.283C363.059 530.596 364.363 530.253 365.874 530.253C366.659 530.253 367.355 530.351 367.963 530.547C368.572 530.724 369.17 531.008 369.758 531.4L371.583 530.665L371.966 530.782C371.946 531.214 371.926 531.606 371.907 531.96C371.887 532.293 371.868 532.676 371.848 533.107C371.848 533.539 371.848 534.088 371.848 534.755C371.848 535.403 371.848 536.237 371.848 537.257C371.848 538.277 371.848 539.552 371.848 541.082ZM368.758 541.465V533.843C368.758 533.294 368.611 532.842 368.316 532.489C368.042 532.136 367.699 531.881 367.287 531.724C366.894 531.548 366.521 531.459 366.168 531.459C365.187 531.459 364.393 531.705 363.785 532.195C363.176 532.686 362.725 533.343 362.431 534.167C362.156 534.991 362.019 535.903 362.019 536.904C362.019 537.492 362.048 538.14 362.107 538.846C362.166 539.552 362.303 540.239 362.519 540.906C362.735 541.553 363.059 542.083 363.49 542.495C363.922 542.907 364.501 543.113 365.227 543.113C365.874 543.113 366.531 542.966 367.198 542.672C367.865 542.358 368.385 541.955 368.758 541.465ZM401.625 530.37L402.155 530.488C402.135 530.92 402.116 531.312 402.096 531.665C402.077 531.999 402.057 532.381 402.037 532.813C402.037 533.245 402.037 533.794 402.037 534.461C402.037 535.108 402.037 535.942 402.037 536.962C402.037 537.983 402.037 539.258 402.037 540.788C402.037 541.906 402.008 542.848 401.949 543.613C401.89 544.359 401.772 545.104 401.596 545.85C401.321 547.027 400.742 548.047 399.86 548.91C398.977 549.774 397.937 550.441 396.74 550.912C395.563 551.402 394.366 551.647 393.15 551.647C392.306 551.647 391.443 551.451 390.56 551.059C389.677 550.666 388.971 550.166 388.441 549.558L390.207 547.233H390.825C391.276 548.018 391.806 548.704 392.414 549.293C393.042 549.882 393.729 550.176 394.474 550.176C395.593 550.176 396.446 549.862 397.034 549.234C397.643 548.606 398.064 547.763 398.3 546.703C398.555 545.663 398.692 544.506 398.712 543.231L398.418 543.113C397.633 543.623 396.721 544.094 395.681 544.526C394.661 544.938 393.719 545.144 392.856 545.144C392.032 545.144 391.394 544.987 390.943 544.673C390.492 544.359 390.168 543.947 389.972 543.437C389.795 542.907 389.687 542.318 389.648 541.671C389.609 541.004 389.589 540.327 389.589 539.64C389.589 538.895 389.619 538.14 389.677 537.374C389.736 536.609 389.766 535.854 389.766 535.108C389.766 534.795 389.746 534.441 389.707 534.049C389.687 533.637 389.589 533.284 389.413 532.99C389.236 532.695 388.922 532.548 388.471 532.548C388.216 532.548 387.921 532.646 387.588 532.842C387.274 533.039 386.999 533.245 386.764 533.46L386.234 532.725C386.862 532.175 387.608 531.656 388.471 531.165C389.334 530.675 390.197 530.429 391.061 530.429C391.551 530.429 391.992 530.606 392.385 530.959C392.542 531.096 392.669 531.332 392.767 531.665C392.865 531.979 392.915 532.597 392.915 533.519C392.915 534.383 392.885 535.236 392.826 536.08C392.787 536.904 392.767 537.777 392.767 538.699C392.767 540.268 392.944 541.387 393.297 542.054C393.65 542.701 394.366 543.025 395.445 543.025C395.857 543.025 396.279 542.946 396.711 542.789C397.162 542.632 397.574 542.456 397.947 542.26C398.32 542.044 398.584 541.887 398.741 541.789C398.82 540.925 398.869 540.043 398.888 539.14C398.928 538.218 398.947 537.296 398.947 536.374C398.947 535.511 398.928 534.667 398.888 533.843C398.849 532.999 398.781 532.185 398.682 531.4L401.625 530.37ZM408.417 543.731C407.593 542.985 407.033 542.103 406.739 541.082C406.445 540.043 406.298 539.003 406.298 537.963C406.298 536.531 406.631 535.256 407.298 534.137C407.985 533.019 408.917 532.136 410.094 531.489C411.271 530.841 412.625 530.518 414.155 530.518C415.097 530.518 416.029 530.635 416.951 530.871C417.873 531.087 418.677 531.508 419.364 532.136C420.051 532.744 420.551 533.451 420.865 534.255C421.179 535.059 421.336 535.893 421.336 536.756C421.336 538.777 420.973 540.406 420.247 541.642C419.521 542.858 418.56 543.751 417.363 544.32C416.166 544.869 414.842 545.144 413.39 545.144C412.488 545.144 411.595 545.055 410.712 544.879C409.829 544.702 409.064 544.32 408.417 543.731ZM413.979 531.695C413.213 531.695 412.576 531.901 412.066 532.313C411.556 532.705 411.153 533.225 410.859 533.872C410.585 534.5 410.388 535.177 410.271 535.903C410.153 536.609 410.094 537.286 410.094 537.934C410.094 538.424 410.143 539.013 410.241 539.699C410.339 540.366 410.516 541.024 410.771 541.671C411.026 542.318 411.379 542.858 411.83 543.29C412.301 543.721 412.9 543.937 413.625 543.937C414.567 543.937 415.303 543.731 415.833 543.319C416.362 542.907 416.745 542.358 416.98 541.671C417.235 540.984 417.392 540.229 417.451 539.405C417.51 538.581 417.539 537.757 417.539 536.933C417.539 536.089 417.432 535.275 417.216 534.49C417.02 533.686 416.657 533.019 416.127 532.489C415.617 531.96 414.901 531.695 413.979 531.695ZM436.35 537.875C436.35 536.717 436.33 535.569 436.291 534.432C436.272 533.294 436.232 532.185 436.173 531.106L439.205 530.106L439.558 530.4C439.499 531.734 439.46 533.068 439.44 534.402C439.42 535.736 439.411 537.08 439.411 538.434C439.411 538.63 439.401 538.934 439.381 539.346C439.361 539.758 439.371 540.18 439.411 540.612C439.45 541.043 439.558 541.416 439.734 541.73C439.911 542.024 440.205 542.171 440.617 542.171C440.911 542.171 441.235 542.083 441.588 541.906C441.961 541.73 442.304 541.543 442.618 541.347H442.913L443.148 541.936C442.736 542.348 442.265 542.799 441.735 543.29C441.206 543.78 440.666 544.202 440.117 544.555C439.587 544.888 439.067 545.055 438.557 545.055C437.87 545.055 437.37 544.859 437.056 544.467C436.742 544.055 436.536 543.574 436.438 543.025L436.144 542.848C435.575 543.142 434.957 543.466 434.29 543.819C433.643 544.153 433.005 544.447 432.377 544.702C431.749 544.938 431.161 545.055 430.611 545.055C430.062 545.055 429.542 544.977 429.052 544.82C428.581 544.682 428.149 544.437 427.757 544.084C427.266 543.633 427.002 542.995 426.962 542.171C426.923 541.328 426.903 540.209 426.903 538.816C426.903 538.483 426.903 538.159 426.903 537.845C426.923 537.512 426.933 537.198 426.933 536.904C426.933 536.138 426.933 535.422 426.933 534.755C426.933 534.069 426.854 533.519 426.697 533.107C426.54 532.676 426.236 532.46 425.785 532.46C425.53 532.46 425.236 532.558 424.902 532.754C424.569 532.931 424.265 533.097 423.99 533.254L423.578 532.519C424.029 532.185 424.51 531.842 425.02 531.489C425.53 531.136 426.05 530.841 426.58 530.606C427.109 530.351 427.62 530.223 428.11 530.223C428.738 530.223 429.209 530.361 429.523 530.635C429.856 530.89 430.072 531.234 430.17 531.665C430.288 532.077 430.347 532.529 430.347 533.019C430.347 533.627 430.307 534.412 430.229 535.373C430.17 536.335 430.141 537.267 430.141 538.169C430.141 539.15 430.199 539.994 430.317 540.7C430.454 541.406 430.719 541.946 431.112 542.318C431.524 542.691 432.142 542.878 432.966 542.878C433.652 542.878 434.261 542.74 434.79 542.466C435.32 542.171 435.83 541.838 436.321 541.465C436.34 540.896 436.35 540.307 436.35 539.699C436.35 539.091 436.35 538.483 436.35 537.875ZM458.725 527.516L461.873 526.456L462.315 526.662C462.315 526.662 462.295 526.829 462.256 527.163C462.236 527.496 462.207 527.918 462.168 528.428C462.148 528.919 462.119 529.439 462.079 529.988C462.04 530.537 462.001 531.038 461.962 531.489L462.168 531.724H465.846L466.052 532.018L465.758 532.784L465.405 533.048H462.168L461.932 533.284V537.963C461.932 538.787 461.952 539.562 461.991 540.288C462.05 540.994 462.187 541.573 462.403 542.024C462.639 542.456 463.021 542.672 463.551 542.672C463.943 542.672 464.355 542.554 464.787 542.318C465.238 542.063 465.621 541.789 465.934 541.494H466.229L466.582 541.936C466.209 542.426 465.768 542.917 465.258 543.407C464.767 543.898 464.218 544.31 463.61 544.643C463.021 544.977 462.393 545.144 461.726 545.144C461.02 545.144 460.471 544.996 460.078 544.702C459.686 544.408 459.401 544.015 459.225 543.525C459.048 543.015 458.94 542.456 458.901 541.848C458.862 541.239 458.842 540.631 458.842 540.023V533.313L458.577 533.048H455.34L455.164 532.813L455.458 531.96L455.782 531.754H458.607L458.813 531.489C458.813 530.979 458.803 530.42 458.783 529.811C458.764 529.184 458.744 528.644 458.725 528.193C458.725 527.742 458.725 527.516 458.725 527.516ZM471.176 543.731C470.352 542.985 469.793 542.103 469.499 541.082C469.205 540.043 469.057 539.003 469.057 537.963C469.057 536.531 469.391 535.256 470.058 534.137C470.745 533.019 471.677 532.136 472.854 531.489C474.031 530.841 475.384 530.518 476.915 530.518C477.856 530.518 478.788 530.635 479.71 530.871C480.633 531.087 481.437 531.508 482.124 532.136C482.81 532.744 483.311 533.451 483.624 534.255C483.938 535.059 484.095 535.893 484.095 536.756C484.095 538.777 483.732 540.406 483.006 541.642C482.281 542.858 481.319 543.751 480.122 544.32C478.926 544.869 477.601 545.144 476.15 545.144C475.247 545.144 474.354 545.055 473.472 544.879C472.589 544.702 471.824 544.32 471.176 543.731ZM476.738 531.695C475.973 531.695 475.335 531.901 474.825 532.313C474.315 532.705 473.913 533.225 473.619 533.872C473.344 534.5 473.148 535.177 473.03 535.903C472.912 536.609 472.854 537.286 472.854 537.934C472.854 538.424 472.903 539.013 473.001 539.699C473.099 540.366 473.275 541.024 473.53 541.671C473.786 542.318 474.139 542.858 474.59 543.29C475.061 543.721 475.659 543.937 476.385 543.937C477.327 543.937 478.062 543.731 478.592 543.319C479.122 542.907 479.504 542.358 479.74 541.671C479.995 540.984 480.152 540.229 480.211 539.405C480.27 538.581 480.299 537.757 480.299 536.933C480.299 536.089 480.191 535.275 479.975 534.49C479.779 533.686 479.416 533.019 478.886 532.489C478.376 531.96 477.66 531.695 476.738 531.695ZM510.381 537.875C510.381 536.717 510.361 535.569 510.322 534.432C510.302 533.294 510.263 532.185 510.204 531.106L513.235 530.106L513.589 530.4C513.53 531.734 513.49 533.068 513.471 534.402C513.451 535.736 513.441 537.08 513.441 538.434C513.441 538.63 513.432 538.934 513.412 539.346C513.392 539.758 513.402 540.18 513.441 540.612C513.481 541.043 513.589 541.416 513.765 541.73C513.942 542.024 514.236 542.171 514.648 542.171C514.942 542.171 515.266 542.083 515.619 541.906C515.992 541.73 516.335 541.543 516.649 541.347H516.943L517.179 541.936C516.767 542.348 516.296 542.799 515.766 543.29C515.237 543.78 514.697 544.202 514.148 544.555C513.618 544.888 513.098 545.055 512.588 545.055C511.901 545.055 511.401 544.859 511.087 544.467C510.773 544.055 510.567 543.574 510.469 543.025L510.175 542.848C509.606 543.142 508.988 543.466 508.321 543.819C507.673 544.153 507.036 544.447 506.408 544.702C505.78 544.938 505.192 545.055 504.642 545.055C504.093 545.055 503.573 544.977 503.083 544.82C502.612 544.682 502.18 544.437 501.788 544.084C501.297 543.633 501.032 542.995 500.993 542.171C500.954 541.328 500.934 540.209 500.934 538.816C500.934 538.483 500.934 538.159 500.934 537.845C500.954 537.512 500.964 537.198 500.964 536.904C500.964 536.138 500.964 535.422 500.964 534.755C500.964 534.069 500.885 533.519 500.728 533.107C500.571 532.676 500.267 532.46 499.816 532.46C499.561 532.46 499.267 532.558 498.933 532.754C498.6 532.931 498.296 533.097 498.021 533.254L497.609 532.519C498.06 532.185 498.541 531.842 499.051 531.489C499.561 531.136 500.081 530.841 500.611 530.606C501.14 530.351 501.65 530.223 502.141 530.223C502.769 530.223 503.24 530.361 503.553 530.635C503.887 530.89 504.103 531.234 504.201 531.665C504.319 532.077 504.377 532.529 504.377 533.019C504.377 533.627 504.338 534.412 504.26 535.373C504.201 536.335 504.171 537.267 504.171 538.169C504.171 539.15 504.23 539.994 504.348 540.7C504.485 541.406 504.75 541.946 505.143 542.318C505.555 542.691 506.173 542.878 506.997 542.878C507.683 542.878 508.291 542.74 508.821 542.466C509.351 542.171 509.861 541.838 510.351 541.465C510.371 540.896 510.381 540.307 510.381 539.699C510.381 539.091 510.381 538.483 510.381 537.875ZM525.104 533.696C525.104 534.559 525.104 535.53 525.104 536.609C525.123 537.688 525.143 538.748 525.163 539.788C525.202 540.827 525.231 541.73 525.251 542.495C525.29 543.26 525.339 543.76 525.398 543.996L522.161 544.938L521.808 544.732C521.827 544.163 521.847 543.505 521.867 542.76C521.886 541.995 521.906 541.23 521.926 540.464C521.945 539.699 521.955 538.993 521.955 538.346C521.975 537.679 521.984 537.139 521.984 536.727C522.004 536.315 522.014 536.109 522.014 536.109C522.014 535.481 522.004 534.883 521.984 534.314C521.965 533.745 521.876 533.284 521.72 532.931C521.563 532.558 521.288 532.372 520.896 532.372C520.699 532.372 520.464 532.44 520.189 532.578C519.915 532.695 519.65 532.833 519.395 532.99C519.159 533.147 518.973 533.264 518.836 533.343L518.306 532.636C518.757 532.264 519.248 531.891 519.777 531.518C520.307 531.145 520.846 530.832 521.396 530.576C521.965 530.321 522.524 530.194 523.073 530.194C523.838 530.194 524.339 530.41 524.574 530.841C524.829 531.253 524.976 531.714 525.016 532.224L525.369 532.342C526.232 531.812 527.174 531.342 528.194 530.93C529.234 530.498 530.244 530.282 531.225 530.282C532.049 530.282 532.667 530.439 533.079 530.753C533.491 531.067 533.775 531.518 533.932 532.107C534.089 532.676 534.168 533.362 534.168 534.167C534.187 534.951 534.197 535.825 534.197 536.786C534.197 537.237 534.178 537.737 534.138 538.287C534.119 538.836 534.109 539.346 534.109 539.817C534.109 540.661 534.148 541.2 534.227 541.436C534.325 541.651 534.442 541.818 534.58 541.936C534.776 542.132 535.051 542.23 535.404 542.23C535.777 542.23 536.12 542.152 536.434 541.995C536.767 541.838 537.081 541.661 537.375 541.465H537.729L538.052 541.965C537.621 542.397 537.14 542.858 536.61 543.348C536.1 543.839 535.571 544.261 535.021 544.614C534.472 544.947 533.923 545.114 533.373 545.114C532.745 545.114 532.216 544.918 531.784 544.526C531.49 544.251 531.294 543.858 531.195 543.348C531.117 542.838 531.078 542.142 531.078 541.259C531.097 540.357 531.107 539.189 531.107 537.757C531.107 537.188 531.097 536.57 531.078 535.903C531.058 535.216 530.989 534.589 530.872 534.02C530.774 533.451 530.587 533.048 530.313 532.813C530.097 532.597 529.842 532.47 529.548 532.43C529.253 532.372 528.959 532.342 528.665 532.342C528.233 532.342 527.664 532.499 526.958 532.813C526.271 533.107 525.653 533.402 525.104 533.696ZM546.151 533.048L545.886 533.284C545.886 535.128 545.935 537.021 546.033 538.964C546.151 540.886 546.259 542.662 546.357 544.29L543.149 545.114L542.649 544.849C542.688 543.829 542.718 542.672 542.737 541.377C542.777 540.062 542.806 538.709 542.826 537.316C542.845 535.923 542.855 534.589 542.855 533.313L542.59 533.048H539.324L539.177 532.813L539.471 531.96L539.795 531.754H542.62L542.855 531.459C542.934 529.89 543.179 528.644 543.591 527.722C544.022 526.8 544.533 526.123 545.121 525.691C545.729 525.24 546.328 524.956 546.916 524.838C547.524 524.701 548.035 524.632 548.447 524.632C548.643 524.632 548.947 524.681 549.359 524.779C549.771 524.858 550.212 525.064 550.683 525.397C551.154 525.711 551.556 526.211 551.89 526.898L549.83 528.399L549.359 528.193C549.359 527.486 549.163 526.927 548.77 526.515C548.397 526.084 548.054 525.868 547.74 525.868C547.446 525.868 547.122 526.054 546.769 526.427C546.436 526.8 546.2 527.33 546.063 528.016C545.984 528.428 545.935 528.879 545.916 529.37C545.896 529.841 545.886 530.537 545.886 531.459L546.151 531.724H549.859L550.036 532.018L549.771 532.784L549.418 533.048H546.151ZM554.346 543.731C553.522 542.985 552.963 542.103 552.669 541.082C552.374 540.043 552.227 539.003 552.227 537.963C552.227 536.531 552.561 535.256 553.228 534.137C553.914 533.019 554.846 532.136 556.023 531.489C557.201 530.841 558.554 530.518 560.085 530.518C561.026 530.518 561.958 530.635 562.88 530.871C563.802 531.087 564.607 531.508 565.293 532.136C565.98 532.744 566.48 533.451 566.794 534.255C567.108 535.059 567.265 535.893 567.265 536.756C567.265 538.777 566.902 540.406 566.176 541.642C565.45 542.858 564.489 543.751 563.292 544.32C562.096 544.869 560.771 545.144 559.319 545.144C558.417 545.144 557.524 545.055 556.641 544.879C555.759 544.702 554.993 544.32 554.346 543.731ZM559.908 531.695C559.143 531.695 558.505 531.901 557.995 532.313C557.485 532.705 557.083 533.225 556.789 533.872C556.514 534.5 556.318 535.177 556.2 535.903C556.082 536.609 556.023 537.286 556.023 537.934C556.023 538.424 556.072 539.013 556.171 539.699C556.269 540.366 556.445 541.024 556.7 541.671C556.955 542.318 557.308 542.858 557.76 543.29C558.231 543.721 558.829 543.937 559.555 543.937C560.497 543.937 561.232 543.731 561.762 543.319C562.292 542.907 562.674 542.358 562.91 541.671C563.165 540.984 563.322 540.229 563.381 539.405C563.439 538.581 563.469 537.757 563.469 536.933C563.469 536.089 563.361 535.275 563.145 534.49C562.949 533.686 562.586 533.019 562.056 532.489C561.546 531.96 560.83 531.695 559.908 531.695ZM576.511 543.849L573.392 544.996L572.803 544.79C572.823 544.202 572.843 543.535 572.862 542.789C572.882 542.024 572.901 541.259 572.921 540.494C572.941 539.729 572.951 539.022 572.951 538.375C572.97 537.708 572.98 537.178 572.98 536.786C573 536.374 573.009 536.168 573.009 536.168C573.009 535.579 573 535.01 572.98 534.461C572.96 533.912 572.882 533.47 572.745 533.137C572.607 532.784 572.342 532.607 571.95 532.607C571.675 532.607 571.342 532.705 570.949 532.901C570.557 533.078 570.224 533.274 569.949 533.49L569.478 532.813C569.929 532.46 570.41 532.107 570.92 531.754C571.43 531.381 571.95 531.067 572.48 530.812C573.029 530.557 573.578 530.429 574.128 530.429C574.932 530.429 575.452 530.675 575.687 531.165C575.942 531.656 576.07 532.264 576.07 532.99L576.394 533.137C576.786 532.725 577.218 532.323 577.689 531.93C578.159 531.518 578.66 531.185 579.189 530.93C579.719 530.655 580.268 530.518 580.837 530.518C581.681 530.518 582.279 530.792 582.633 531.342C582.986 531.891 583.162 532.499 583.162 533.166L580.955 534.873L580.573 534.638C580.494 534.226 580.317 533.853 580.043 533.519C579.768 533.186 579.386 533.019 578.895 533.019C578.13 533.019 577.541 533.264 577.129 533.755C576.737 534.226 576.462 534.795 576.305 535.462C576.168 536.109 576.099 536.707 576.099 537.257C576.099 537.571 576.119 538.11 576.158 538.875C576.197 539.64 576.247 540.474 576.305 541.377C576.384 542.279 576.453 543.103 576.511 543.849ZM598.878 541.082C598.878 542.201 598.848 543.142 598.79 543.908C598.731 544.653 598.613 545.399 598.436 546.144C598.142 547.38 597.573 548.43 596.73 549.293C595.886 550.156 594.885 550.813 593.728 551.265C592.59 551.716 591.413 551.942 590.197 551.942C589.353 551.942 588.49 551.745 587.607 551.353C586.724 550.961 586.018 550.46 585.488 549.852L587.254 547.527H587.872C588.323 548.312 588.853 548.999 589.461 549.587C590.089 550.176 590.775 550.47 591.521 550.47C592.09 550.47 592.629 550.343 593.139 550.088C593.649 549.852 594.052 549.538 594.346 549.146C594.778 548.577 595.091 548.037 595.288 547.527C595.484 547.037 595.611 546.458 595.67 545.791C595.729 545.124 595.768 544.261 595.788 543.201C594.866 543.809 593.924 544.329 592.963 544.761C592.001 545.173 590.971 545.379 589.873 545.379C588.892 545.379 588.117 545.144 587.548 544.673C586.979 544.202 586.557 543.613 586.283 542.907C586.008 542.181 585.831 541.426 585.753 540.641C585.674 539.856 585.635 539.15 585.635 538.522C585.635 536.835 585.92 535.373 586.489 534.137C587.077 532.901 587.911 531.95 588.99 531.283C590.089 530.596 591.393 530.253 592.904 530.253C593.689 530.253 594.385 530.351 594.993 530.547C595.602 530.724 596.2 531.008 596.789 531.4L598.613 530.665L598.996 530.782C598.976 531.214 598.956 531.606 598.937 531.96C598.917 532.293 598.898 532.676 598.878 533.107C598.878 533.539 598.878 534.088 598.878 534.755C598.878 535.403 598.878 536.237 598.878 537.257C598.878 538.277 598.878 539.552 598.878 541.082ZM595.788 541.465V533.843C595.788 533.294 595.641 532.842 595.347 532.489C595.072 532.136 594.729 531.881 594.317 531.724C593.924 531.548 593.551 531.459 593.198 531.459C592.217 531.459 591.423 531.705 590.815 532.195C590.206 532.686 589.755 533.343 589.461 534.167C589.186 534.991 589.049 535.903 589.049 536.904C589.049 537.492 589.078 538.14 589.137 538.846C589.196 539.552 589.333 540.239 589.549 540.906C589.765 541.553 590.089 542.083 590.52 542.495C590.952 542.907 591.531 543.113 592.257 543.113C592.904 543.113 593.561 542.966 594.228 542.672C594.895 542.358 595.415 541.955 595.788 541.465ZM615.412 541.73L615.854 541.848L616.177 542.407C615.53 542.878 614.834 543.339 614.088 543.79C613.362 544.221 612.607 544.575 611.822 544.849C611.037 545.144 610.243 545.291 609.438 545.291C608.595 545.291 607.761 545.173 606.937 544.938C606.133 544.722 605.436 544.339 604.848 543.79C604.141 543.142 603.661 542.377 603.406 541.494C603.17 540.612 603.052 539.719 603.052 538.816C603.052 537.737 603.219 536.688 603.553 535.668C603.886 534.647 604.396 533.735 605.083 532.931C605.77 532.107 606.623 531.459 607.643 530.988C608.683 530.498 609.899 530.253 611.292 530.253C612.214 530.253 613.107 530.39 613.97 530.665C614.834 530.92 615.54 531.361 616.089 531.989C616.639 532.617 616.913 533.47 616.913 534.549C616.913 534.863 616.835 535.099 616.678 535.256C616.54 535.413 616.334 535.54 616.06 535.638C616.06 535.638 615.834 535.707 615.383 535.844C614.932 535.981 614.343 536.168 613.617 536.403C612.891 536.619 612.107 536.855 611.263 537.11C610.419 537.365 609.586 537.62 608.762 537.875C607.938 538.13 607.212 538.355 606.584 538.552C606.584 539.336 606.751 540.092 607.084 540.818C607.418 541.543 607.908 542.142 608.556 542.613C609.203 543.064 609.998 543.29 610.939 543.29C611.744 543.29 612.519 543.133 613.264 542.819C614.029 542.505 614.745 542.142 615.412 541.73ZM606.79 537.257C606.829 537.257 606.858 537.257 606.878 537.257C606.917 537.237 606.947 537.227 606.966 537.227C608.32 536.796 609.419 536.462 610.262 536.227C611.106 535.972 611.744 535.775 612.175 535.638C612.607 535.481 612.901 535.344 613.058 535.226C613.215 535.089 613.293 534.912 613.293 534.696C613.293 534.186 613.205 533.686 613.029 533.196C612.852 532.685 612.568 532.264 612.175 531.93C611.783 531.597 611.263 531.43 610.616 531.43C609.831 531.43 609.174 531.626 608.644 532.018C608.114 532.391 607.702 532.872 607.408 533.46C607.114 534.049 606.898 534.677 606.76 535.344C606.643 535.991 606.584 536.58 606.584 537.11C606.584 537.208 606.652 537.257 606.79 537.257ZM621.644 527.516L624.793 526.456L625.235 526.662C625.235 526.662 625.215 526.829 625.176 527.163C625.156 527.496 625.127 527.918 625.087 528.428C625.068 528.919 625.038 529.439 624.999 529.988C624.96 530.537 624.921 531.038 624.881 531.489L625.087 531.724H628.766L628.972 532.018L628.678 532.784L628.325 533.048H625.087L624.852 533.284V537.963C624.852 538.787 624.872 539.562 624.911 540.288C624.97 540.994 625.107 541.573 625.323 542.024C625.558 542.456 625.941 542.672 626.471 542.672C626.863 542.672 627.275 542.554 627.707 542.318C628.158 542.063 628.54 541.789 628.854 541.494H629.149L629.502 541.936C629.129 542.426 628.687 542.917 628.177 543.407C627.687 543.898 627.138 544.31 626.529 544.643C625.941 544.977 625.313 545.144 624.646 545.144C623.94 545.144 623.39 544.996 622.998 544.702C622.606 544.408 622.321 544.015 622.145 543.525C621.968 543.015 621.86 542.456 621.821 541.848C621.782 541.239 621.762 540.631 621.762 540.023V533.313L621.497 533.048H618.26L618.083 532.813L618.378 531.96L618.701 531.754H621.527L621.733 531.489C621.733 530.979 621.723 530.42 621.703 529.811C621.684 529.184 621.664 528.644 621.644 528.193C621.644 527.742 621.644 527.516 621.644 527.516ZM634.008 527.516L637.156 526.456L637.598 526.662C637.598 526.662 637.578 526.829 637.539 527.163C637.519 527.496 637.49 527.918 637.451 528.428C637.431 528.919 637.402 529.439 637.362 529.988C637.323 530.537 637.284 531.038 637.245 531.489L637.451 531.724H641.129L641.335 532.018L641.041 532.784L640.688 533.048H637.451L637.215 533.284V537.963C637.215 538.787 637.235 539.562 637.274 540.288C637.333 540.994 637.47 541.573 637.686 542.024C637.922 542.456 638.304 542.672 638.834 542.672C639.226 542.672 639.638 542.554 640.07 542.318C640.521 542.063 640.904 541.789 641.218 541.494H641.512L641.865 541.936C641.492 542.426 641.051 542.917 640.541 543.407C640.05 543.898 639.501 544.31 638.893 544.643C638.304 544.977 637.676 545.144 637.009 545.144C636.303 545.144 635.754 544.996 635.361 544.702C634.969 544.408 634.684 544.015 634.508 543.525C634.331 543.015 634.223 542.456 634.184 541.848C634.145 541.239 634.125 540.631 634.125 540.023V533.313L633.86 533.048H630.623L630.447 532.813L630.741 531.96L631.065 531.754H633.89L634.096 531.489C634.096 530.979 634.086 530.42 634.066 529.811C634.047 529.184 634.027 528.644 634.008 528.193C634.008 527.742 634.008 527.516 634.008 527.516ZM655.847 531.43L657.613 530.312L658.025 530.576C657.887 531.911 657.77 533.254 657.672 534.608C657.593 535.942 657.554 537.276 657.554 538.61C657.554 539.925 657.593 540.935 657.672 541.642C657.75 542.328 658.035 542.672 658.525 542.672C658.859 542.672 659.212 542.534 659.584 542.26C659.957 541.965 660.291 541.691 660.585 541.436L661.144 542.054C660.752 542.524 660.301 543.005 659.79 543.496C659.3 543.966 658.76 544.369 658.172 544.702C657.583 545.016 656.955 545.173 656.288 545.173C655.621 545.173 655.16 544.957 654.905 544.526C654.67 544.094 654.523 543.662 654.464 543.231L654.081 543.084C653.316 543.652 652.463 544.163 651.521 544.614C650.579 545.045 649.608 545.261 648.608 545.261C647.823 545.261 647.156 545.065 646.606 544.673C646.077 544.28 645.645 543.77 645.312 543.142C644.998 542.515 644.772 541.857 644.635 541.171C644.497 540.464 644.429 539.807 644.429 539.199C644.429 536.217 645.027 533.971 646.224 532.46C647.44 530.93 649.216 530.164 651.55 530.164C652.355 530.164 653.11 530.282 653.816 530.518C654.523 530.733 655.2 531.038 655.847 531.43ZM654.287 541.377C654.346 540.945 654.385 540.366 654.405 539.64C654.444 538.895 654.474 538.12 654.493 537.316C654.513 536.492 654.523 535.746 654.523 535.079C654.523 534.569 654.464 534.02 654.346 533.431C654.228 532.842 653.973 532.342 653.581 531.93C653.208 531.499 652.62 531.283 651.815 531.283C650.972 531.283 650.285 531.508 649.755 531.96C649.226 532.391 648.814 532.96 648.519 533.666C648.225 534.353 648.019 535.089 647.901 535.874C647.803 536.658 647.754 537.384 647.754 538.051C647.754 538.561 647.793 539.101 647.872 539.67C647.97 540.239 648.137 540.778 648.372 541.288C648.608 541.779 648.922 542.181 649.314 542.495C649.726 542.809 650.236 542.966 650.844 542.966C651.511 542.966 652.139 542.799 652.728 542.466C653.336 542.132 653.856 541.769 654.287 541.377ZM667.667 524.073L668.109 524.426L667.903 532.519L668.226 532.607C668.991 531.979 669.835 531.44 670.757 530.988C671.679 530.537 672.66 530.312 673.7 530.312C674.563 530.312 675.289 530.488 675.878 530.841C676.466 531.194 676.937 531.656 677.29 532.224C677.663 532.793 677.928 533.421 678.085 534.108C678.261 534.775 678.35 535.442 678.35 536.109C678.35 537.325 678.124 538.522 677.673 539.699C677.222 540.857 676.505 541.857 675.525 542.701C674.661 543.427 673.7 544.035 672.641 544.526C671.581 544.996 670.453 545.232 669.256 545.232C668.471 545.232 667.726 545.075 667.02 544.761C666.333 544.447 665.774 543.917 665.342 543.172C664.911 542.426 664.695 541.396 664.695 540.082V529.9C664.695 529.331 664.685 528.83 664.665 528.399C664.646 527.967 664.636 527.536 664.636 527.104C664.636 526.653 664.391 526.349 663.9 526.192C663.429 526.015 662.753 525.888 661.87 525.809V525.162L662.135 524.897L667.667 524.073ZM667.903 534.02L667.814 537.963C667.814 538.571 667.853 539.209 667.932 539.876C668.01 540.543 668.148 541.171 668.344 541.759C668.54 542.328 668.825 542.799 669.197 543.172C669.59 543.525 670.09 543.702 670.698 543.702C671.503 543.702 672.17 543.525 672.699 543.172C673.249 542.799 673.68 542.318 673.994 541.73C674.308 541.141 674.524 540.504 674.642 539.817C674.779 539.13 674.848 538.463 674.848 537.816C674.848 537.286 674.808 536.717 674.73 536.109C674.651 535.481 674.495 534.893 674.259 534.343C674.024 533.794 673.671 533.353 673.2 533.019C672.748 532.666 672.13 532.489 671.346 532.489C670.718 532.489 670.11 532.656 669.521 532.99C668.933 533.323 668.393 533.666 667.903 534.02ZM685.983 524.308L686.365 524.661L686.13 538.022C686.13 538.218 686.12 538.424 686.101 538.64C686.101 538.856 686.101 539.071 686.101 539.287C686.101 540.327 686.159 541.131 686.277 541.7C686.414 542.25 686.728 542.524 687.219 542.524C687.631 542.524 688.023 542.387 688.396 542.112C688.769 541.818 689.102 541.514 689.397 541.2H689.75L690.221 541.671C689.848 542.161 689.406 542.672 688.896 543.201C688.406 543.711 687.866 544.143 687.278 544.496C686.689 544.849 686.071 545.026 685.424 545.026C684.58 545.026 683.982 544.83 683.629 544.437C683.295 544.045 683.089 543.554 683.011 542.966C682.952 542.377 682.922 541.779 682.922 541.171C682.922 540.052 682.942 538.924 682.981 537.786C683.02 536.649 683.04 535.481 683.04 534.284C683.04 533.46 683.04 532.627 683.04 531.783C683.04 530.939 683.03 530.115 683.011 529.311C682.991 528.879 682.971 528.409 682.952 527.898C682.952 527.388 682.922 527.006 682.863 526.751C682.746 526.241 682.432 525.946 681.922 525.868C681.412 525.789 680.843 525.74 680.215 525.721V525.044L680.568 524.808L685.983 524.308ZM704.795 541.73L705.237 541.848L705.561 542.407C704.913 542.878 704.217 543.339 703.471 543.79C702.745 544.221 701.99 544.575 701.205 544.849C700.42 545.144 699.626 545.291 698.821 545.291C697.978 545.291 697.144 545.173 696.32 544.938C695.516 544.722 694.819 544.339 694.231 543.79C693.524 543.142 693.044 542.377 692.789 541.494C692.553 540.612 692.436 539.719 692.436 538.816C692.436 537.737 692.602 536.688 692.936 535.668C693.269 534.647 693.779 533.735 694.466 532.931C695.153 532.107 696.006 531.459 697.026 530.988C698.066 530.498 699.283 530.253 700.675 530.253C701.598 530.253 702.49 530.39 703.353 530.665C704.217 530.92 704.923 531.361 705.472 531.989C706.022 532.617 706.296 533.47 706.296 534.549C706.296 534.863 706.218 535.099 706.061 535.256C705.924 535.413 705.718 535.54 705.443 535.638C705.443 535.638 705.217 535.707 704.766 535.844C704.315 535.981 703.726 536.168 703 536.403C702.274 536.619 701.49 536.855 700.646 537.11C699.802 537.365 698.969 537.62 698.145 537.875C697.321 538.13 696.595 538.355 695.967 538.552C695.967 539.336 696.134 540.092 696.467 540.818C696.801 541.543 697.291 542.142 697.939 542.613C698.586 543.064 699.381 543.29 700.322 543.29C701.127 543.29 701.902 543.133 702.647 542.819C703.412 542.505 704.128 542.142 704.795 541.73ZM696.173 537.257C696.212 537.257 696.242 537.257 696.261 537.257C696.3 537.237 696.33 537.227 696.349 537.227C697.703 536.796 698.802 536.462 699.645 536.227C700.489 535.972 701.127 535.775 701.558 535.638C701.99 535.481 702.284 535.344 702.441 535.226C702.598 535.089 702.677 534.912 702.677 534.696C702.677 534.186 702.588 533.686 702.412 533.196C702.235 532.685 701.951 532.264 701.558 531.93C701.166 531.597 700.646 531.43 699.999 531.43C699.214 531.43 698.557 531.626 698.027 532.018C697.497 532.391 697.085 532.872 696.791 533.46C696.497 534.049 696.281 534.677 696.143 535.344C696.026 535.991 695.967 536.58 695.967 537.11C695.967 537.208 696.036 537.257 696.173 537.257ZM211.294 580.73L211.736 580.848L212.06 581.407C211.412 581.878 210.716 582.339 209.97 582.79C209.244 583.221 208.489 583.575 207.704 583.849C206.919 584.144 206.125 584.291 205.32 584.291C204.477 584.291 203.643 584.173 202.819 583.938C202.015 583.722 201.318 583.339 200.73 582.79C200.023 582.142 199.543 581.377 199.288 580.494C199.052 579.612 198.934 578.719 198.934 577.816C198.934 576.737 199.101 575.688 199.435 574.668C199.768 573.647 200.278 572.735 200.965 571.931C201.652 571.107 202.505 570.459 203.525 569.988C204.565 569.498 205.781 569.253 207.174 569.253C208.097 569.253 208.989 569.39 209.852 569.665C210.716 569.92 211.422 570.361 211.971 570.989C212.521 571.617 212.795 572.47 212.795 573.549C212.795 573.863 212.717 574.099 212.56 574.256C212.423 574.413 212.217 574.54 211.942 574.638C211.942 574.638 211.716 574.707 211.265 574.844C210.814 574.981 210.225 575.168 209.499 575.403C208.773 575.619 207.989 575.855 207.145 576.11C206.301 576.365 205.468 576.62 204.644 576.875C203.82 577.13 203.094 577.355 202.466 577.552C202.466 578.336 202.633 579.092 202.966 579.818C203.3 580.543 203.79 581.142 204.438 581.613C205.085 582.064 205.88 582.29 206.821 582.29C207.626 582.29 208.401 582.133 209.146 581.819C209.911 581.505 210.627 581.142 211.294 580.73ZM202.672 576.257C202.711 576.257 202.741 576.257 202.76 576.257C202.799 576.237 202.829 576.227 202.848 576.227C204.202 575.796 205.301 575.462 206.144 575.227C206.988 574.972 207.626 574.775 208.057 574.638C208.489 574.481 208.783 574.344 208.94 574.226C209.097 574.089 209.176 573.912 209.176 573.696C209.176 573.186 209.087 572.686 208.911 572.196C208.734 571.685 208.45 571.264 208.057 570.93C207.665 570.597 207.145 570.43 206.498 570.43C205.713 570.43 205.056 570.626 204.526 571.018C203.996 571.391 203.584 571.872 203.29 572.46C202.996 573.049 202.78 573.677 202.642 574.344C202.525 574.991 202.466 575.58 202.466 576.11C202.466 576.208 202.535 576.257 202.672 576.257ZM228.385 569.429H228.739L229.827 570.489V570.783C228.65 571.47 227.552 572.264 226.531 573.167C225.511 574.069 224.57 575.001 223.706 575.962C224.001 576.531 224.324 577.14 224.677 577.787C225.031 578.434 225.394 579.043 225.766 579.612C226.159 580.181 226.541 580.651 226.914 581.024C227.287 581.377 227.64 581.554 227.973 581.554C228.366 581.554 228.748 581.426 229.121 581.171C229.494 580.916 229.818 580.651 230.092 580.377H230.387L230.71 580.789C230.377 581.279 229.975 581.789 229.504 582.319C229.052 582.829 228.552 583.27 228.003 583.643C227.473 583.996 226.904 584.173 226.296 584.173C225.629 584.173 225.099 583.957 224.707 583.526C224.315 583.074 223.952 582.603 223.618 582.113L221.646 578.464H221.352C220.665 579.288 220.028 580.161 219.439 581.083C218.851 582.005 218.341 582.957 217.909 583.938L217.438 584.055L216.026 583.32V583.114C216.751 582.074 217.526 581.044 218.35 580.024C219.174 579.003 220.038 578.042 220.94 577.14C220.724 576.649 220.469 576.139 220.175 575.609C219.9 575.08 219.645 574.599 219.41 574.167C219.174 573.736 219.008 573.441 218.909 573.284C218.694 572.892 218.419 572.5 218.085 572.107C217.772 571.715 217.399 571.519 216.967 571.519C216.693 571.519 216.359 571.627 215.967 571.842C215.574 572.039 215.231 572.245 214.937 572.46L214.407 571.754C214.819 571.401 215.251 571.038 215.702 570.665C216.173 570.293 216.663 569.988 217.173 569.753C217.683 569.498 218.193 569.37 218.703 569.37C218.978 569.37 219.253 569.4 219.527 569.459C219.802 569.498 220.047 569.616 220.263 569.812C220.891 570.361 221.421 571.107 221.852 572.048C222.304 572.971 222.716 573.853 223.088 574.697H223.265C224.069 573.775 224.883 572.872 225.707 571.99C226.551 571.087 227.444 570.234 228.385 569.429ZM238.739 583.378V590.206L235.178 591.089L234.825 590.824C234.864 589.862 234.903 588.96 234.942 588.116C235.001 587.292 235.06 586.459 235.119 585.615C235.178 584.771 235.227 583.859 235.266 582.878C235.325 581.878 235.364 580.749 235.384 579.494C235.423 578.219 235.443 576.747 235.443 575.08C235.443 574.471 235.433 573.912 235.413 573.402C235.393 572.872 235.305 572.451 235.148 572.137C234.991 571.823 234.707 571.666 234.295 571.666C234.04 571.666 233.736 571.764 233.383 571.96C233.029 572.156 232.715 572.333 232.441 572.49L232.029 571.784C232.715 571.254 233.461 570.734 234.265 570.224C235.07 569.714 235.884 569.459 236.708 569.459C237.355 569.459 237.826 569.645 238.121 570.018C238.434 570.371 238.601 570.803 238.621 571.313L238.856 571.43C239.602 570.94 240.426 570.489 241.328 570.077C242.25 569.665 243.133 569.459 243.977 569.459C244.958 569.459 245.772 569.635 246.419 569.988C247.067 570.342 247.577 570.812 247.95 571.401C248.322 571.99 248.577 572.637 248.715 573.343C248.872 574.05 248.95 574.756 248.95 575.462C248.95 576.502 248.783 577.522 248.45 578.523C248.116 579.504 247.626 580.396 246.978 581.201C246.351 582.005 245.556 582.643 244.595 583.114C243.653 583.584 242.564 583.82 241.328 583.82C240.897 583.82 240.465 583.781 240.033 583.702C239.602 583.624 239.19 583.457 238.797 583.202L238.739 583.378ZM239.327 581.789C239.916 582.319 240.622 582.584 241.446 582.584C242.25 582.584 242.908 582.417 243.418 582.084C243.947 581.73 244.35 581.279 244.624 580.73C244.918 580.181 245.124 579.582 245.242 578.935C245.36 578.287 245.419 577.659 245.419 577.051C245.419 576.482 245.37 575.884 245.272 575.256C245.193 574.628 245.036 574.04 244.801 573.49C244.565 572.941 244.222 572.5 243.771 572.166C243.32 571.813 242.721 571.636 241.976 571.636C241.367 571.636 240.769 571.793 240.18 572.107C239.592 572.402 239.043 572.715 238.533 573.049V579.023C238.533 579.513 238.572 580.014 238.65 580.524C238.748 581.034 238.974 581.456 239.327 581.789ZM264.45 580.73L264.891 580.848L265.215 581.407C264.567 581.878 263.871 582.339 263.125 582.79C262.399 583.221 261.644 583.575 260.859 583.849C260.074 584.144 259.28 584.291 258.476 584.291C257.632 584.291 256.798 584.173 255.974 583.938C255.17 583.722 254.473 583.339 253.885 582.79C253.178 582.142 252.698 581.377 252.443 580.494C252.207 579.612 252.09 578.719 252.09 577.816C252.09 576.737 252.256 575.688 252.59 574.668C252.923 573.647 253.433 572.735 254.12 571.931C254.807 571.107 255.66 570.459 256.68 569.988C257.72 569.498 258.937 569.253 260.33 569.253C261.252 569.253 262.144 569.39 263.008 569.665C263.871 569.92 264.577 570.361 265.126 570.989C265.676 571.617 265.95 572.47 265.95 573.549C265.95 573.863 265.872 574.099 265.715 574.256C265.578 574.413 265.372 574.54 265.097 574.638C265.097 574.638 264.871 574.707 264.42 574.844C263.969 574.981 263.38 575.168 262.654 575.403C261.928 575.619 261.144 575.855 260.3 576.11C259.457 576.365 258.623 576.62 257.799 576.875C256.975 577.13 256.249 577.355 255.621 577.552C255.621 578.336 255.788 579.092 256.121 579.818C256.455 580.543 256.945 581.142 257.593 581.613C258.24 582.064 259.035 582.29 259.976 582.29C260.781 582.29 261.556 582.133 262.301 581.819C263.066 581.505 263.782 581.142 264.45 580.73ZM255.827 576.257C255.866 576.257 255.896 576.257 255.915 576.257C255.955 576.237 255.984 576.227 256.004 576.227C257.357 575.796 258.456 575.462 259.3 575.227C260.143 574.972 260.781 574.775 261.212 574.638C261.644 574.481 261.938 574.344 262.095 574.226C262.252 574.089 262.331 573.912 262.331 573.696C262.331 573.186 262.242 572.686 262.066 572.196C261.889 571.685 261.605 571.264 261.212 570.93C260.82 570.597 260.3 570.43 259.653 570.43C258.868 570.43 258.211 570.626 257.681 571.018C257.151 571.391 256.739 571.872 256.445 572.46C256.151 573.049 255.935 573.677 255.798 574.344C255.68 574.991 255.621 575.58 255.621 576.11C255.621 576.208 255.69 576.257 255.827 576.257ZM274.537 582.849L271.417 583.996L270.829 583.79C270.848 583.202 270.868 582.535 270.887 581.789C270.907 581.024 270.927 580.259 270.946 579.494C270.966 578.729 270.976 578.022 270.976 577.375C270.995 576.708 271.005 576.178 271.005 575.786C271.025 575.374 271.035 575.168 271.035 575.168C271.035 574.579 271.025 574.01 271.005 573.461C270.986 572.912 270.907 572.47 270.77 572.137C270.632 571.784 270.368 571.607 269.975 571.607C269.701 571.607 269.367 571.705 268.975 571.901C268.582 572.078 268.249 572.274 267.974 572.49L267.503 571.813C267.954 571.46 268.435 571.107 268.945 570.754C269.455 570.381 269.975 570.067 270.505 569.812C271.054 569.557 271.604 569.429 272.153 569.429C272.957 569.429 273.477 569.675 273.713 570.165C273.968 570.656 274.095 571.264 274.095 571.99L274.419 572.137C274.811 571.725 275.243 571.323 275.714 570.93C276.185 570.518 276.685 570.185 277.215 569.93C277.744 569.655 278.294 569.518 278.863 569.518C279.706 569.518 280.305 569.792 280.658 570.342C281.011 570.891 281.187 571.499 281.187 572.166L278.98 573.873L278.598 573.638C278.519 573.226 278.343 572.853 278.068 572.519C277.793 572.186 277.411 572.019 276.92 572.019C276.155 572.019 275.567 572.264 275.155 572.755C274.762 573.226 274.488 573.795 274.331 574.462C274.193 575.109 274.125 575.707 274.125 576.257C274.125 576.571 274.144 577.11 274.183 577.875C274.223 578.64 274.272 579.474 274.331 580.377C274.409 581.279 274.478 582.103 274.537 582.849ZM285.573 565.545C285.573 565.015 285.76 564.564 286.132 564.191C286.525 563.799 286.986 563.602 287.515 563.602C288.045 563.602 288.496 563.799 288.869 564.191C289.262 564.564 289.458 565.015 289.458 565.545C289.458 566.074 289.262 566.536 288.869 566.928C288.496 567.301 288.045 567.487 287.515 567.487C286.986 567.487 286.525 567.301 286.132 566.928C285.76 566.536 285.573 566.074 285.573 565.545ZM292.371 580.318L292.871 580.789V581.112C292.499 581.564 292.067 582.034 291.577 582.525C291.086 582.996 290.556 583.398 289.987 583.732C289.438 584.045 288.869 584.202 288.281 584.202C287.927 584.202 287.594 584.124 287.28 583.967C286.966 583.83 286.711 583.633 286.515 583.378C286.26 583.025 286.093 582.594 286.015 582.084C285.936 581.573 285.907 580.867 285.926 579.965C285.946 579.043 285.956 577.836 285.956 576.345V572.902C285.936 572.588 285.858 572.274 285.72 571.96C285.603 571.627 285.338 571.46 284.926 571.46C284.612 571.46 284.278 571.558 283.925 571.754C283.592 571.931 283.248 572.147 282.895 572.402L282.424 571.754C282.876 571.381 283.366 571.009 283.896 570.636C284.445 570.263 285.004 569.949 285.573 569.694C286.142 569.439 286.711 569.312 287.28 569.312C287.574 569.312 287.859 569.37 288.133 569.488C288.408 569.586 288.614 569.753 288.751 569.988C288.869 570.185 288.957 570.43 289.016 570.724C289.075 571.018 289.105 571.597 289.105 572.46C289.105 573.049 289.085 573.647 289.046 574.256C289.026 574.844 289.016 575.433 289.016 576.021C289.016 577.218 289.006 578.238 288.987 579.082C288.987 579.925 289.075 580.573 289.252 581.024C289.428 581.475 289.772 581.701 290.282 581.701C290.635 581.701 290.998 581.544 291.371 581.23C291.743 580.916 292.077 580.612 292.371 580.318ZM307.431 580.73L307.873 580.848L308.196 581.407C307.549 581.878 306.852 582.339 306.107 582.79C305.381 583.221 304.626 583.575 303.841 583.849C303.056 584.144 302.262 584.291 301.457 584.291C300.614 584.291 299.78 584.173 298.956 583.938C298.151 583.722 297.455 583.339 296.866 582.79C296.16 582.142 295.679 581.377 295.424 580.494C295.189 579.612 295.071 578.719 295.071 577.816C295.071 576.737 295.238 575.688 295.571 574.668C295.905 573.647 296.415 572.735 297.102 571.931C297.788 571.107 298.642 570.459 299.662 569.988C300.702 569.498 301.918 569.253 303.311 569.253C304.233 569.253 305.126 569.39 305.989 569.665C306.852 569.92 307.559 570.361 308.108 570.989C308.657 571.617 308.932 572.47 308.932 573.549C308.932 573.863 308.854 574.099 308.697 574.256C308.559 574.413 308.353 574.54 308.079 574.638C308.079 574.638 307.853 574.707 307.402 574.844C306.95 574.981 306.362 575.168 305.636 575.403C304.91 575.619 304.125 575.855 303.282 576.11C302.438 576.365 301.604 576.62 300.78 576.875C299.956 577.13 299.23 577.355 298.603 577.552C298.603 578.336 298.769 579.092 299.103 579.818C299.436 580.543 299.927 581.142 300.574 581.613C301.222 582.064 302.016 582.29 302.958 582.29C303.762 582.29 304.537 582.133 305.283 581.819C306.048 581.505 306.764 581.142 307.431 580.73ZM298.809 576.257C298.848 576.257 298.877 576.257 298.897 576.257C298.936 576.237 298.966 576.227 298.985 576.227C300.339 575.796 301.438 575.462 302.281 575.227C303.125 574.972 303.762 574.775 304.194 574.638C304.626 574.481 304.92 574.344 305.077 574.226C305.234 574.089 305.312 573.912 305.312 573.696C305.312 573.186 305.224 572.686 305.047 572.196C304.871 571.685 304.586 571.264 304.194 570.93C303.802 570.597 303.282 570.43 302.634 570.43C301.85 570.43 301.192 570.626 300.663 571.018C300.133 571.391 299.721 571.872 299.427 572.46C299.132 573.049 298.917 573.677 298.779 574.344C298.661 574.991 298.603 575.58 298.603 576.11C298.603 576.208 298.671 576.257 298.809 576.257ZM317.283 572.696C317.283 573.559 317.283 574.53 317.283 575.609C317.302 576.688 317.322 577.748 317.342 578.788C317.381 579.827 317.41 580.73 317.43 581.495C317.469 582.26 317.518 582.76 317.577 582.996L314.34 583.938L313.987 583.732C314.006 583.163 314.026 582.505 314.046 581.76C314.065 580.995 314.085 580.23 314.104 579.464C314.124 578.699 314.134 577.993 314.134 577.346C314.154 576.679 314.163 576.139 314.163 575.727C314.183 575.315 314.193 575.109 314.193 575.109C314.193 574.481 314.183 573.883 314.163 573.314C314.144 572.745 314.055 572.284 313.898 571.931C313.742 571.558 313.467 571.372 313.074 571.372C312.878 571.372 312.643 571.44 312.368 571.578C312.094 571.695 311.829 571.833 311.574 571.99C311.338 572.147 311.152 572.264 311.015 572.343L310.485 571.636C310.936 571.264 311.426 570.891 311.956 570.518C312.486 570.145 313.025 569.832 313.575 569.576C314.144 569.321 314.703 569.194 315.252 569.194C316.017 569.194 316.518 569.41 316.753 569.841C317.008 570.253 317.155 570.714 317.194 571.224L317.548 571.342C318.411 570.812 319.353 570.342 320.373 569.93C321.413 569.498 322.423 569.282 323.404 569.282C324.228 569.282 324.846 569.439 325.258 569.753C325.67 570.067 325.954 570.518 326.111 571.107C326.268 571.676 326.347 572.362 326.347 573.167C326.366 573.951 326.376 574.825 326.376 575.786C326.376 576.237 326.357 576.737 326.317 577.287C326.298 577.836 326.288 578.346 326.288 578.817C326.288 579.661 326.327 580.2 326.406 580.436C326.504 580.651 326.621 580.818 326.759 580.936C326.955 581.132 327.23 581.23 327.583 581.23C327.955 581.23 328.299 581.152 328.613 580.995C328.946 580.838 329.26 580.661 329.554 580.465H329.908L330.231 580.965C329.8 581.397 329.319 581.858 328.789 582.348C328.279 582.839 327.749 583.261 327.2 583.614C326.651 583.947 326.101 584.114 325.552 584.114C324.924 584.114 324.395 583.918 323.963 583.526C323.669 583.251 323.473 582.858 323.374 582.348C323.296 581.838 323.257 581.142 323.257 580.259C323.276 579.357 323.286 578.189 323.286 576.757C323.286 576.188 323.276 575.57 323.257 574.903C323.237 574.216 323.168 573.589 323.051 573.02C322.953 572.451 322.766 572.048 322.492 571.813C322.276 571.597 322.021 571.47 321.726 571.43C321.432 571.372 321.138 571.342 320.844 571.342C320.412 571.342 319.843 571.499 319.137 571.813C318.45 572.107 317.832 572.402 317.283 572.696ZM344.922 572.666L342.215 574.285L341.714 574.079C341.714 573.471 341.626 572.892 341.449 572.343C341.293 571.774 341.028 571.313 340.655 570.96C340.282 570.587 339.772 570.4 339.125 570.4C338.477 570.4 337.938 570.626 337.506 571.077C337.094 571.509 336.761 572.058 336.506 572.725C336.27 573.373 336.103 574.04 336.005 574.726C335.907 575.413 335.858 576.011 335.858 576.522C335.858 577.071 335.917 577.669 336.035 578.317C336.172 578.945 336.388 579.553 336.682 580.141C336.996 580.71 337.408 581.181 337.918 581.554C338.448 581.907 339.095 582.084 339.86 582.084C340.704 582.084 341.538 581.887 342.362 581.495C343.186 581.103 343.971 580.622 344.716 580.053L345.069 580.141L345.363 580.553C344.363 581.554 343.225 582.397 341.95 583.084C340.675 583.771 339.282 584.114 337.771 584.114C336.476 584.114 335.436 583.82 334.652 583.231C333.867 582.643 333.288 581.887 332.915 580.965C332.562 580.043 332.386 579.101 332.386 578.14C332.386 577.081 332.523 576.021 332.798 574.962C333.092 573.902 333.543 572.941 334.151 572.078C334.779 571.215 335.593 570.528 336.594 570.018C337.614 569.488 338.86 569.223 340.331 569.223C341.077 569.223 341.783 569.331 342.45 569.547C343.137 569.743 343.706 570.096 344.157 570.606C344.608 571.097 344.863 571.784 344.922 572.666ZM360.184 580.73L360.625 580.848L360.949 581.407C360.302 581.878 359.605 582.339 358.86 582.79C358.134 583.221 357.378 583.575 356.594 583.849C355.809 584.144 355.014 584.291 354.21 584.291C353.366 584.291 352.533 584.173 351.709 583.938C350.904 583.722 350.208 583.339 349.619 582.79C348.913 582.142 348.432 581.377 348.177 580.494C347.942 579.612 347.824 578.719 347.824 577.816C347.824 576.737 347.991 575.688 348.324 574.668C348.658 573.647 349.168 572.735 349.855 571.931C350.541 571.107 351.395 570.459 352.415 569.988C353.455 569.498 354.671 569.253 356.064 569.253C356.986 569.253 357.879 569.39 358.742 569.665C359.605 569.92 360.311 570.361 360.861 570.989C361.41 571.617 361.685 572.47 361.685 573.549C361.685 573.863 361.606 574.099 361.449 574.256C361.312 574.413 361.106 574.54 360.831 574.638C360.831 574.638 360.606 574.707 360.154 574.844C359.703 574.981 359.115 575.168 358.389 575.403C357.663 575.619 356.878 575.855 356.034 576.11C355.191 576.365 354.357 576.62 353.533 576.875C352.709 577.13 351.983 577.355 351.355 577.552C351.355 578.336 351.522 579.092 351.856 579.818C352.189 580.543 352.68 581.142 353.327 581.613C353.975 582.064 354.769 582.29 355.711 582.29C356.515 582.29 357.29 582.133 358.036 581.819C358.801 581.505 359.517 581.142 360.184 580.73ZM351.561 576.257C351.601 576.257 351.63 576.257 351.65 576.257C351.689 576.237 351.718 576.227 351.738 576.227C353.092 575.796 354.19 575.462 355.034 575.227C355.878 574.972 356.515 574.775 356.947 574.638C357.378 574.481 357.673 574.344 357.83 574.226C357.987 574.089 358.065 573.912 358.065 573.696C358.065 573.186 357.977 572.686 357.8 572.196C357.624 571.685 357.339 571.264 356.947 570.93C356.554 570.597 356.034 570.43 355.387 570.43C354.602 570.43 353.945 570.626 353.415 571.018C352.886 571.391 352.474 571.872 352.179 572.46C351.885 573.049 351.669 573.677 351.532 574.344C351.414 574.991 351.355 575.58 351.355 576.11C351.355 576.208 351.424 576.257 351.561 576.257ZM375.097 571.283L372.949 573.461L372.508 573.343C372.449 572.872 372.302 572.411 372.066 571.96C371.85 571.509 371.546 571.136 371.154 570.842C370.761 570.528 370.251 570.371 369.624 570.371C368.956 570.371 368.466 570.567 368.152 570.96C367.858 571.332 367.711 571.842 367.711 572.49C367.711 573.059 367.907 573.559 368.299 573.991C368.711 574.403 369.202 574.756 369.771 575.05C370.359 575.344 370.899 575.609 371.389 575.845C372.292 576.257 373.027 576.639 373.596 576.992C374.165 577.346 374.587 577.738 374.862 578.17C375.136 578.582 375.274 579.111 375.274 579.759C375.274 580.524 375.078 581.191 374.685 581.76C374.312 582.329 373.812 582.8 373.184 583.172C372.557 583.545 371.86 583.82 371.095 583.996C370.349 584.173 369.614 584.261 368.888 584.261C367.926 584.261 367.004 584.124 366.122 583.849C365.258 583.575 364.483 583.055 363.797 582.29L365.651 579.523L366.092 579.553C366.249 580.102 366.445 580.661 366.681 581.23C366.936 581.779 367.289 582.24 367.74 582.613C368.191 582.986 368.79 583.172 369.535 583.172C370.183 583.172 370.752 582.986 371.242 582.613C371.733 582.221 371.978 581.691 371.978 581.024C371.978 580.749 371.919 580.504 371.801 580.288C371.684 580.073 371.517 579.867 371.301 579.67C371.007 579.396 370.595 579.131 370.065 578.876C369.535 578.621 368.976 578.346 368.388 578.052C367.799 577.758 367.23 577.434 366.681 577.081C366.151 576.708 365.71 576.286 365.356 575.815C365.023 575.325 364.856 574.746 364.856 574.079C364.856 572.961 365.131 572.048 365.68 571.342C366.249 570.636 366.975 570.116 367.858 569.782C368.76 569.449 369.712 569.282 370.712 569.282C371.576 569.282 372.409 569.4 373.214 569.635C374.038 569.871 374.666 570.42 375.097 571.283ZM379.389 582.172C379.389 581.603 379.595 581.112 380.007 580.7C380.419 580.288 380.91 580.082 381.479 580.082C382.048 580.082 382.528 580.288 382.921 580.7C383.333 581.112 383.539 581.603 383.539 582.172C383.539 582.721 383.333 583.202 382.921 583.614C382.528 584.026 382.048 584.232 381.479 584.232C380.91 584.232 380.419 584.026 380.007 583.614C379.595 583.202 379.389 582.721 379.389 582.172Z" fill="#ECECEC"/>
<path d="M133.35 57.1129C90.6793 53.6795 80.8289 20.9404 81.2376 5H191.594C187.67 48.6522 151.13 57.9303 133.35 57.1129Z" fill="white"/>
<ellipse cx="84.1944" cy="112.454" rx="3.06546" ry="3.06893" fill="#ECECEC"/>
<ellipse cx="84.1944" cy="134.55" rx="3.06546" ry="3.06893" fill="#ECECEC"/>
<ellipse cx="84.1944" cy="156.647" rx="3.06546" ry="3.06893" fill="#ECECEC"/>
<ellipse cx="84.1944" cy="178.743" rx="3.06546" ry="3.06893" fill="#ECECEC"/>
<ellipse cx="84.1944" cy="200.839" rx="3.06546" ry="3.06893" fill="#ECECEC"/>
<ellipse cx="118.527" cy="112.454" rx="3.06546" ry="3.06893" fill="#ECECEC"/>
<ellipse cx="118.527" cy="134.55" rx="3.06546" ry="3.06893" fill="#ECECEC"/>
<ellipse cx="118.527" cy="156.647" rx="3.06546" ry="3.06893" fill="#ECECEC"/>
<ellipse cx="118.527" cy="178.743" rx="3.06546" ry="3.06893" fill="#ECECEC"/>
<ellipse cx="118.527" cy="200.839" rx="3.06546" ry="3.06893" fill="#ECECEC"/>
<ellipse cx="152.86" cy="112.454" rx="3.06546" ry="3.06893" fill="#ECECEC"/>
<ellipse cx="152.86" cy="134.55" rx="3.06546" ry="3.06893" fill="#ECECEC"/>
<ellipse cx="152.86" cy="156.647" rx="3.06546" ry="3.06893" fill="#ECECEC"/>
<ellipse cx="152.86" cy="178.743" rx="3.06546" ry="3.06893" fill="#ECECEC"/>
<ellipse cx="152.86" cy="200.839" rx="3.06546" ry="3.06893" fill="#ECECEC"/>
<ellipse cx="187.193" cy="112.454" rx="3.06546" ry="3.06893" fill="#ECECEC"/>
<ellipse cx="187.193" cy="134.55" rx="3.06546" ry="3.06893" fill="#ECECEC"/>
<ellipse cx="187.193" cy="156.647" rx="3.06546" ry="3.06893" fill="#ECECEC"/>
<ellipse cx="187.193" cy="178.743" rx="3.06546" ry="3.06893" fill="#ECECEC"/>
<ellipse cx="187.193" cy="200.839" rx="3.06546" ry="3.06893" fill="#ECECEC"/>
<ellipse cx="221.526" cy="112.454" rx="3.06546" ry="3.06893" fill="#ECECEC"/>
<ellipse cx="221.526" cy="134.55" rx="3.06546" ry="3.06893" fill="#ECECEC"/>
<ellipse cx="221.526" cy="156.647" rx="3.06546" ry="3.06893" fill="#ECECEC"/>
<ellipse cx="221.526" cy="178.743" rx="3.06546" ry="3.06893" fill="#ECECEC"/>
<ellipse cx="221.526" cy="200.839" rx="3.06546" ry="3.06893" fill="#ECECEC"/>
<ellipse cx="255.86" cy="112.454" rx="3.06546" ry="3.06893" fill="#ECECEC"/>
<ellipse cx="255.86" cy="134.55" rx="3.06546" ry="3.06893" fill="#ECECEC"/>
<ellipse cx="255.86" cy="156.647" rx="3.06546" ry="3.06893" fill="#ECECEC"/>
<ellipse cx="255.86" cy="178.743" rx="3.06546" ry="3.06893" fill="#ECECEC"/>
<ellipse cx="255.86" cy="200.839" rx="3.06546" ry="3.06893" fill="#ECECEC"/>
<path d="M360.977 5H427.191V189.174C427.191 207.458 412.368 222.281 394.084 222.281V222.281C375.799 222.281 360.977 207.458 360.977 189.174V5Z" fill="url(#paint0_linear_73_28)"/>
<path d="M476.236 5H557.165V251.788C557.165 274.136 539.048 292.252 516.7 292.252V292.252C494.353 292.252 476.236 274.136 476.236 251.788V5Z" fill="url(#paint1_linear_73_28)"/>
<ellipse cx="171.349" cy="824.465" rx="23.9106" ry="22.7101" fill="url(#paint2_linear_73_28)"/>
<ellipse cx="231.432" cy="785.183" rx="9.19639" ry="9.2068" fill="#70DDFF"/>
<path d="M211.201 825.079C211.201 835.223 207.619 845.019 201.126 852.638C194.633 860.256 185.672 865.174 175.919 866.473C166.166 867.772 156.288 865.363 148.131 859.696C139.975 854.03 134.098 845.493 131.6 835.682C129.102 825.871 130.153 815.458 134.557 806.388C138.961 797.318 146.416 790.213 155.53 786.401C164.643 782.589 174.79 782.331 184.075 785.675C193.359 789.018 201.146 795.735 205.978 804.57L204.413 805.481C199.795 797.039 192.355 790.62 183.482 787.425C174.61 784.23 164.914 784.477 156.205 788.119C147.497 791.762 140.372 798.551 136.164 807.218C131.956 815.885 130.951 825.836 133.338 835.211C135.726 844.586 141.341 852.744 149.135 858.159C156.929 863.574 166.369 865.876 175.689 864.634C185.009 863.393 193.571 858.693 199.776 851.413C205.981 844.134 209.403 834.772 209.403 825.079H211.201Z" fill="white"/>
<circle cx="766.411" cy="905.633" r="3.06546" fill="#ECECEC"/>
<circle cx="766.411" cy="927.704" r="3.06546" fill="#ECECEC"/>
<circle cx="766.411" cy="949.776" r="3.06546" fill="#ECECEC"/>
<circle cx="766.411" cy="971.847" r="3.06546" fill="#ECECEC"/>
<circle cx="766.411" cy="993.919" r="3.06546" fill="#ECECEC"/>
<circle cx="800.743" cy="905.633" r="3.06546" fill="#ECECEC"/>
<circle cx="800.743" cy="927.704" r="3.06546" fill="#ECECEC"/>
<circle cx="800.743" cy="949.776" r="3.06546" fill="#ECECEC"/>
<circle cx="800.743" cy="971.847" r="3.06546" fill="#ECECEC"/>
<circle cx="800.743" cy="993.919" r="3.06546" fill="#ECECEC"/>
<circle cx="835.078" cy="905.633" r="3.06546" fill="#ECECEC"/>
<circle cx="835.078" cy="927.704" r="3.06546" fill="#ECECEC"/>
<circle cx="835.078" cy="949.776" r="3.06546" fill="#ECECEC"/>
<circle cx="835.078" cy="971.847" r="3.06546" fill="#ECECEC"/>
<circle cx="835.078" cy="993.919" r="3.06546" fill="#ECECEC"/>
<circle cx="869.41" cy="905.633" r="3.06546" fill="#ECECEC"/>
<circle cx="869.41" cy="927.704" r="3.06546" fill="#ECECEC"/>
<circle cx="869.41" cy="949.776" r="3.06546" fill="#ECECEC"/>
<circle cx="869.41" cy="971.847" r="3.06546" fill="#ECECEC"/>
<circle cx="869.41" cy="993.919" r="3.06546" fill="#ECECEC"/>
<defs>
<filter id="filter0_d_73_28" x="0.298386" y="0.0952611" width="951.403" height="1040.81" filterUnits="userSpaceOnUse" color-interpolation-filters="sRGB">
<feFlood flood-opacity="0" result="BackgroundImageFix"/>
<feColorMatrix in="SourceAlpha" type="matrix" values="0 0 0 0 0 0 0 0 0 0 0 0 0 0 0 0 0 0 127 0" result="hardAlpha"/>
<feOffset/>
<feGaussianBlur stdDeviation="2.45237"/>
<feComposite in2="hardAlpha" operator="out"/>
<feColorMatrix type="matrix" values="0 0 0 0 1 0 0 0 0 1 0 0 0 0 1 0 0 0 1 0"/>
<feBlend mode="normal" in2="BackgroundImageFix" result="effect1_dropShadow_73_28"/>
<feBlend mode="normal" in="SourceGraphic" in2="effect1_dropShadow_73_28" result="shape"/>
</filter>
<filter id="filter1_d_73_28" x="194.452" y="417.939" width="293.872" height="54.0507" filterUnits="userSpaceOnUse" color-interpolation-filters="sRGB">
<feFlood flood-opacity="0" result="BackgroundImageFix"/>
<feColorMatrix in="SourceAlpha" type="matrix" values="0 0 0 0 0 0 0 0 0 0 0 0 0 0 0 0 0 0 127 0" result="hardAlpha"/>
<feOffset/>
<feGaussianBlur stdDeviation="2.45237"/>
<feComposite in2="hardAlpha" operator="out"/>
<feColorMatrix type="matrix" values="0 0 0 0 0 0 0 0 0 0 0 0 0 0 0 0 0 0 0.25 0"/>
<feBlend mode="normal" in2="BackgroundImageFix" result="effect1_dropShadow_73_28"/>
<feBlend mode="normal" in="SourceGraphic" in2="effect1_dropShadow_73_28" result="shape"/>
</filter>
<linearGradient id="paint0_linear_73_28" x1="394.084" y1="222.281" x2="394.084" y2="5" gradientUnits="userSpaceOnUse">
<stop stop-color="white"/>
<stop offset="1" stop-color="white" stop-opacity="0"/>
</linearGradient>
<linearGradient id="paint1_linear_73_28" x1="516.7" y1="292.252" x2="516.7" y2="5" gradientUnits="userSpaceOnUse">
<stop stop-color="#70DDFF"/>
<stop offset="1" stop-color="#70DDFF" stop-opacity="0"/>
</linearGradient>
<linearGradient id="paint2_linear_73_28" x1="171.349" y1="801.755" x2="171.349" y2="847.176" gradientUnits="userSpaceOnUse">
<stop stop-color="#5FD8FF"/>
<stop offset="1" stop-color="white"/>
</linearGradient>
</defs>
</svg>
