<svg width="32" height="30" viewBox="0 0 32 30" fill="none" xmlns="http://www.w3.org/2000/svg">
<g id="vaadin:password">
<path id="Vector" d="M32 9.375C32 8.25 31.2 7.5 30 7.5H2C0.8 7.5 0 8.25 0 9.375V20.625C0 21.75 0.8 22.5 2 22.5H30C31.2 22.5 32 21.75 32 20.625V9.375ZM30 20.625H2V9.375H30V20.625Z" fill="#5CC46B"/>
<path id="Vector_2" d="M12 15C12 15.4973 11.7893 15.9742 11.4142 16.3258C11.0391 16.6775 10.5304 16.875 10 16.875C9.46957 16.875 8.96086 16.6775 8.58579 16.3258C8.21071 15.9742 8 15.4973 8 15C8 14.5027 8.21071 14.0258 8.58579 13.6742C8.96086 13.3225 9.46957 13.125 10 13.125C10.5304 13.125 11.0391 13.3225 11.4142 13.6742C11.7893 14.0258 12 14.5027 12 15ZM18 15C18 15.4973 17.7893 15.9742 17.4142 16.3258C17.0391 16.6775 16.5304 16.875 16 16.875C15.4696 16.875 14.9609 16.6775 14.5858 16.3258C14.2107 15.9742 14 15.4973 14 15C14 14.5027 14.2107 14.0258 14.5858 13.6742C14.9609 13.3225 15.4696 13.125 16 13.125C16.5304 13.125 17.0391 13.3225 17.4142 13.6742C17.7893 14.0258 18 14.5027 18 15ZM24 15C24 15.4973 23.7893 15.9742 23.4142 16.3258C23.0391 16.6775 22.5304 16.875 22 16.875C21.4696 16.875 20.9609 16.6775 20.5858 16.3258C20.2107 15.9742 20 15.4973 20 15C20 14.5027 20.2107 14.0258 20.5858 13.6742C20.9609 13.3225 21.4696 13.125 22 13.125C22.5304 13.125 23.0391 13.3225 23.4142 13.6742C23.7893 14.0258 24 14.5027 24 15Z" fill="#5CC46B"/>
</g>
</svg>
